  0
SECTION
  2
HEADER
  9
$ACADVER
  1
AC1014
  9
$ACADMAINTVER
 70
     9
  9
$DWGCODEPAGE
  3
ANSI_1252
  9
$INSBASE
 10
0.0
 20
0.0
 30
0.0
  9
$EXTMIN
 10
544000.0
 20
130999.999
 30
145.0
  9
$EXTMAX
 10
545000.0
 20
132000.0
 30
167.5
  9
$LIMMIN
 10
541671.213511
 20
128671.213011
  9
$LIMMAX
 10
547328.786489
 20
134328.785989
  9
$ORTHOMODE
 70
     0
  9
$REGENMODE
 70
     1
  9
$FILLMODE
 70
     1
  9
$QTEXTMODE
 70
     0
  9
$MIRRTEXT
 70
     1
  9
$DRAGMODE
 70
     2
  9
$LTSCALE
 40
1.0
  9
$OSMODE
 70
    37
  9
$ATTMODE
 70
     1
  9
$TEXTSIZE
 40
10.0
  9
$TRACEWID
 40
0.05
  9
$TEXTSTYLE
  7
STANDARD
  9
$CLAYER
  8
0
  9
$CELTYPE
  6
CONTINUOUS
  9
$CECOLOR
 62
     4
  9
$CELTSCALE
 40
1.0
  9
$DELOBJ
 70
     1
  9
$DISPSILH
 70
     0
  9
$DIMSCALE
 40
1.0
  9
$DIMASZ
 40
10.0
  9
$DIMEXO
 40
5.0
  9
$DIMDLI
 40
0.0
  9
$DIMRND
 40
0.0
  9
$DIMDLE
 40
0.0
  9
$DIMEXE
 40
5.0
  9
$DIMTP
 40
0.0
  9
$DIMTM
 40
0.0
  9
$DIMTXT
 40
10.0
  9
$DIMCEN
 40
0.09
  9
$DIMTSZ
 40
0.0
  9
$DIMTOL
 70
     0
  9
$DIMLIM
 70
     0
  9
$DIMTIH
 70
     0
  9
$DIMTOH
 70
     0
  9
$DIMSE1
 70
     0
  9
$DIMSE2
 70
     0
  9
$DIMTAD
 70
     1
  9
$DIMZIN
 70
    11
  9
$DIMBLK
  1
TERMINATOROPEN_0_5
  9
$DIMASO
 70
     1
  9
$DIMSHO
 70
     1
  9
$DIMPOST
  1

  9
$DIMAPOST
  1

  9
$DIMALT
 70
     0
  9
$DIMALTD
 70
     0
  9
$DIMALTF
 40
1.0
  9
$DIMLFAC
 40
1.0
  9
$DIMTOFL
 70
     0
  9
$DIMTVP
 40
0.0
  9
$DIMTIX
 70
     0
  9
$DIMSOXD
 70
     0
  9
$DIMSAH
 70
     0
  9
$DIMBLK1
  1

  9
$DIMBLK2
  1

  9
$DIMSTYLE
  2
STANDARD
  9
$DIMCLRD
 70
     0
  9
$DIMCLRE
 70
     0
  9
$DIMCLRT
 70
     0
  9
$DIMTFAC
 40
1.0
  9
$DIMGAP
 40
5.0
  9
$DIMJUST
 70
     0
  9
$DIMSD1
 70
     0
  9
$DIMSD2
 70
     0
  9
$DIMTOLJ
 70
     0
  9
$DIMTZIN
 70
    11
  9
$DIMALTZ
 70
    15
  9
$DIMALTTZ
 70
    15
  9
$DIMFIT
 70
     3
  9
$DIMUPT
 70
     1
  9
$DIMUNIT
 70
     2
  9
$DIMDEC
 70
     0
  9
$DIMTDEC
 70
     0
  9
$DIMALTU
 70
     2
  9
$DIMALTTD
 70
     0
  9
$DIMTXSTY
  7
STYLE-ENGINEERING
  9
$DIMAUNIT
 70
     0
  9
$LUNITS
 70
     2
  9
$LUPREC
 70
     4
  9
$SKETCHINC
 40
0.1
  9
$FILLETRAD
 40
0.5
  9
$AUNITS
 70
     0
  9
$AUPREC
 70
     2
  9
$MENU
  1
.
  9
$ELEVATION
 40
0.0
  9
$PELEVATION
 40
0.0
  9
$THICKNESS
 40
0.0
  9
$LIMCHECK
 70
     0
  9
$CHAMFERA
 40
0.5
  9
$CHAMFERB
 40
0.5
  9
$CHAMFERC
 40
1.0
  9
$CHAMFERD
 40
0.0
  9
$SKPOLY
 70
     0
  9
$TDCREATE
 40
2451789.620802037
  9
$TDUPDATE
 40
2451789.62089463
  9
$TDINDWG
 40
0.0000927662
  9
$TDUSRTIMER
 40
0.0000925926
  9
$USRTIMER
 70
     1
  9
$ANGBASE
 50
0.0
  9
$ANGDIR
 70
     0
  9
$PDMODE
 70
     0
  9
$PDSIZE
 40
0.0
  9
$PLINEWID
 40
0.0
  9
$COORDS
 70
     1
  9
$SPLFRAME
 70
     0
  9
$SPLINETYPE
 70
     6
  9
$SPLINESEGS
 70
     8
  9
$ATTDIA
 70
     0
  9
$ATTREQ
 70
     1
  9
$HANDLING
 70
     1
  9
$HANDSEED
  5
A35
  9
$SURFTAB1
 70
     6
  9
$SURFTAB2
 70
     6
  9
$SURFTYPE
 70
     6
  9
$SURFU
 70
     6
  9
$SURFV
 70
     6
  9
$UCSNAME
  2

  9
$UCSORG
 10
0.0
 20
0.0
 30
0.0
  9
$UCSXDIR
 10
1.0
 20
0.0
 30
0.0
  9
$UCSYDIR
 10
0.0
 20
1.0
 30
0.0
  9
$PUCSNAME
  2

  9
$PUCSORG
 10
0.0
 20
0.0
 30
0.0
  9
$PUCSXDIR
 10
1.0
 20
0.0
 30
0.0
  9
$PUCSYDIR
 10
0.0
 20
1.0
 30
0.0
  9
$USERI1
 70
     0
  9
$USERI2
 70
     0
  9
$USERI3
 70
     0
  9
$USERI4
 70
     0
  9
$USERI5
 70
     0
  9
$USERR1
 40
0.0
  9
$USERR2
 40
0.0
  9
$USERR3
 40
0.0
  9
$USERR4
 40
0.0
  9
$USERR5
 40
0.0
  9
$WORLDVIEW
 70
     1
  9
$SHADEDGE
 70
     3
  9
$SHADEDIF
 70
    70
  9
$TILEMODE
 70
     1
  9
$MAXACTVP
 70
    64
  9
$PINSBASE
 10
0.0
 20
0.0
 30
0.0
  9
$PLIMCHECK
 70
     0
  9
$PEXTMIN
 10
1.000000E+20
 20
1.000000E+20
 30
1.000000E+20
  9
$PEXTMAX
 10
-1.000000E+20
 20
-1.000000E+20
 30
-1.000000E+20
  9
$PLIMMIN
 10
0.0
 20
0.0
  9
$PLIMMAX
 10
12.0
 20
9.0
  9
$UNITMODE
 70
     0
  9
$VISRETAIN
 70
     1
  9
$PLINEGEN
 70
     0
  9
$PSLTSCALE
 70
     0
  9
$TREEDEPTH
 70
  3020
  9
$PICKSTYLE
 70
     1
  9
$CMLSTYLE
  2
STANDARD
  9
$CMLJUST
 70
     0
  9
$CMLSCALE
 40
1.0
  9
$PROXYGRAPHICS
 70
     1
  9
$MEASUREMENT
 70
     0
  0
ENDSEC
  0
SECTION
  2
CLASSES
  0
CLASS
  1
ACDBDICTIONARYWDFLT
  2
AcDbDictionaryWithDefault
  3
ObjectDBX Classes
 90
        0
280
     0
281
     0
  0
CLASS
  1
XRECORD
  2
AcDbXrecord
  3
AutoCAD 2000
 90
        0
280
     0
281
     0
  0
CLASS
  1
LWPOLYLINE
  2
AcDbPolyline
  3
AutoCAD 2000
 90
        0
280
     0
281
     1
  0
CLASS
  1
HATCH
  2
AcDbHatch
  3
AutoCAD 2000
 90
        0
280
     0
281
     1
  0
CLASS
  1
ACDBPLACEHOLDER
  2
AcDbPlaceHolder
  3
ObjectDBX Classes
 90
        0
280
     0
281
     0
  0
CLASS
  1
LAYOUT
  2
AcDbLayout
  3
ObjectDBX Classes
 90
        0
280
     0
281
     0
  0
ENDSEC
  0
SECTION
  2
TABLES
  0
TABLE
  2
VPORT
  5
9CD
330
0
100
AcDbSymbolTable
 70
     1
  0
VPORT
  5
190
102
{ACAD_XDICTIONARY
360
A33
102
}
330
9CD
100
AcDbSymbolTableRecord
100
AcDbViewportTableRecord
  2
*ACTIVE
 70
     0
 10
0.0
 20
0.0
 11
1.0
 21
1.0
 12
544500.0
 22
131499.9995
 13
0.0
 23
0.0
 14
0.02
 24
0.02
 15
10.0
 25
10.0
 16
0.0
 26
0.0
 36
1.0
 17
0.0
 27
0.0
 37
0.0
 40
2080.00208
 41
1.55819
 42
50.0
 43
0.0
 44
0.0
 50
0.0
 51
0.0
 71
     0
 72
   100
 73
     1
 74
     2
 75
     0
 76
     0
 77
     0
 78
     1
  0
ENDTAB
  0
TABLE
  2
LTYPE
  5
9C9
330
0
100
AcDbSymbolTable
 70
     2
  0
LTYPE
  5
9CA
330
9C9
100
AcDbSymbolTableRecord
100
AcDbLinetypeTableRecord
  2
BYBLOCK
 70
     0
  3

 72
    65
 73
     0
 40
0.0
  0
LTYPE
  5
9BB
330
9C9
100
AcDbSymbolTableRecord
100
AcDbLinetypeTableRecord
  2
BYLAYER
 70
     0
  3

 72
    65
 73
     0
 40
0.0
  0
LTYPE
  5
9B9
330
9C9
100
AcDbSymbolTableRecord
100
AcDbLinetypeTableRecord
  2
CONTINUOUS
 70
     0
  3
Solid line
 72
    65
 73
     0
 40
0.0
  0
LTYPE
  5
9E0
330
9C9
100
AcDbSymbolTableRecord
100
AcDbLinetypeTableRecord
  2
DGN_STYLE_3
 70
     0
  3
Dgn Style 3
 72
    65
 73
     2
 40
45.374528
 49
32.410377
 74
     0
 49
-12.964151
 74
     0
  0
ENDTAB
  0
TABLE
  2
LAYER
  5
9C7
330
0
100
AcDbSymbolTable
 70
     5
  0
LAYER
  5
9B7
330
9C7
100
AcDbSymbolTableRecord
100
AcDbLayerTableRecord
  2
0
 70
     0
 62
     7
  6
CONTINUOUS
  0
LAYER
  5
7
330
9C7
100
AcDbSymbolTableRecord
100
AcDbLayerTableRecord
  2
FOSZINTVONAL
 70
     0
 62
     7
  6
CONTINUOUS
  0
LAYER
  5
8
330
9C7
100
AcDbSymbolTableRecord
100
AcDbLayerTableRecord
  2
ALAPSZINTVONAL
 70
     0
 62
     7
  6
CONTINUOUS
  0
LAYER
  5
9
330
9C7
100
AcDbSymbolTableRecord
100
AcDbLayerTableRecord
  2
FELEZO_SZINTVONAL
 70
     0
 62
     7
  6
CONTINUOUS
  0
LAYER
  5
A
330
9C7
100
AcDbSymbolTableRecord
100
AcDbLayerTableRecord
  2
NEGYEDELO_SZINTVONAL
 70
     0
 62
     7
  6
CONTINUOUS
  0
ENDTAB
  0
TABLE
  2
STYLE
  5
9C8
330
0
100
AcDbSymbolTable
 70
     2
  0
STYLE
  5
9BA
330
9C8
100
AcDbSymbolTableRecord
100
AcDbTextStyleTableRecord
  2
STANDARD
 70
     0
 40
0.0
 41
1.0
 50
0.0
 71
     0
 42
10.0
  3
txt
  4

  0
STYLE
  5
9D8
330
9C8
100
AcDbSymbolTableRecord
100
AcDbTextStyleTableRecord
  2
STYLE-ENGINEERING
 70
     0
 40
0.0
 41
1.0
 50
0.0
 71
     0
 42
0.2
  3
ENGINEERING.shx
  4

  0
ENDTAB
  0
TABLE
  2
VIEW
  5
9CB
330
0
100
AcDbSymbolTable
 70
     0
  0
ENDTAB
  0
TABLE
  2
UCS
  5
9CC
330
0
100
AcDbSymbolTable
 70
     0
  0
ENDTAB
  0
TABLE
  2
APPID
  5
9CE
330
0
100
AcDbSymbolTable
 70
     1
  0
APPID
  5
9D6
330
9CE
100
AcDbSymbolTableRecord
100
AcDbRegAppTableRecord
  2
ACAD
 70
     0
  0
ENDTAB
  0
TABLE
  2
DIMSTYLE
  5
9CF
330
0
100
AcDbSymbolTable
 70
     1
  0
DIMSTYLE
105
9BC
330
9CF
100
AcDbSymbolTableRecord
100
AcDbDimStyleTableRecord
  2
STANDARD
 70
     0
  3

  4

  5

  6

  7

 40
1.0
 41
0.18
 42
0.0625
 43
0.38
 44
0.18
 45
0.0
 46
0.0
 47
0.0
 48
0.0
140
0.18
141
0.09
142
0.0
143
25.4
144
1.0
145
0.0
146
1.0
147
0.09
 71
     0
 72
     0
 73
     1
 74
     1
 75
     0
 76
     0
 77
     0
 78
     0
170
     0
171
     2
172
     0
173
     0
174
     0
175
     0
176
     0
177
     0
178
     0
270
     2
271
     4
272
     4
273
     2
274
     2
340
9BA
275
     0
280
     0
281
     0
282
     0
283
     1
284
     0
285
     0
286
     0
287
     3
288
     0
  0
ENDTAB
  0
TABLE
  2
BLOCK_RECORD
  5
9BE
330
0
100
AcDbSymbolTable
 70
     1
  0
BLOCK_RECORD
  5
9BF
330
9BE
100
AcDbSymbolTableRecord
100
AcDbBlockTableRecord
  2
*MODEL_SPACE
  0
BLOCK_RECORD
  5
9C3
330
9BE
100
AcDbSymbolTableRecord
100
AcDbBlockTableRecord
  2
*PAPER_SPACE
  0
BLOCK_RECORD
  5
9D9
330
9BE
100
AcDbSymbolTableRecord
100
AcDbBlockTableRecord
  2
TERMINATOROPEN_0_5
  0
ENDTAB
  0
ENDSEC
  0
SECTION
  2
BLOCKS
  0
BLOCK
  5
9C0
330
9BF
100
AcDbEntity
  8
0
100
AcDbBlockBegin
  2
*MODEL_SPACE
 70
     0
 71
     0
 10
0.0
 20
0.0
 30
0.0
  3
*MODEL_SPACE
  1

  0
ENDBLK
  5
9C1
330
9BF
100
AcDbEntity
  8
0
100
AcDbBlockEnd
  0
BLOCK
  5
9C4
330
9C3
100
AcDbEntity
 67
     1
  8
0
100
AcDbBlockBegin
  2
*PAPER_SPACE
 70
     0
 71
     0
 10
0.0
 20
0.0
 30
0.0
  3
*PAPER_SPACE
  1

  0
ENDBLK
  5
9C5
330
9C3
100
AcDbEntity
 67
     1
  8
0
100
AcDbBlockEnd
  0
BLOCK
  5
9DD
330
9D9
100
AcDbEntity
  8
0
100
AcDbBlockBegin
  2
TERMINATOROPEN_0_5
 70
     0
 71
     0
 10
0.0
 20
0.0
 30
0.0
  3
TERMINATOROPEN_0_5
  1

  0
LINE
  5
9DA
330
9D9
100
AcDbEntity
  8
0
  6
BYBLOCK
 62
     0
100
AcDbLine
 10
0.0
 20
0.0
 30
0.0
 11
-1.0
 21
0.0
 31
0.0
  0
LINE
  5
9DB
330
9D9
100
AcDbEntity
  8
0
  6
BYBLOCK
 62
     0
100
AcDbLine
 10
0.0
 20
0.0
 30
0.0
 11
-1.0
 21
0.25
 31
0.0
  0
LINE
  5
9DC
330
9D9
100
AcDbEntity
  8
0
  6
BYBLOCK
 62
     0
100
AcDbLine
 10
0.0
 20
0.0
 30
0.0
 11
-1.0
 21
-0.25
 31
0.0
  0
ENDBLK
  5
9DE
330
9D9
100
AcDbEntity
  8
0
100
AcDbBlockEnd
  0
ENDSEC
  0
SECTION
  2
ENTITIES
  0
LWPOLYLINE
  5
94B
330
9BF
100
AcDbEntity
  8
FOSZINTVONAL
  6
CONTINUOUS
 62
     1
100
AcDbPolyline
 90
       84
 70
   128
 43
0.0
 38
150.0
 10
544178.407167
 20
131000.0
 10
544179.186
 20
131042.057
 10
544187.124
 20
131096.032
 10
544197.284
 20
131132.862
 10
544200.459
 20
131140.165
 10
544217.604
 20
131167.152
 10
544219.191
 20
131186.202
 10
544222.366
 20
131193.505
 10
544228.399
 20
131202.077
 10
544231.256
 20
131210.015
 10
544229.034
 20
131218.905
 10
544219.191
 20
131226.525
 10
544217.604
 20
131230.335
 10
544217.921
 20
131233.827
 10
544221.414
 20
131240.495
 10
544241.734
 20
131258.91
 10
544244.909
 20
131264.307
 10
544248.401
 20
131275.42
 10
544249.671
 20
131302.09
 10
544258.561
 20
131328.442
 10
544258.244
 20
131345.905
 10
544260.149
 20
131349.715
 10
544269.674
 20
131356.7
 10
544277.294
 20
131365.59
 10
544282.056
 20
131377.337
 10
544283.009
 20
131392.895
 10
544286.184
 20
131401.467
 10
544296.026
 20
131414.485
 10
544308.091
 20
131440.52
 10
544314.124
 20
131444.965
 10
544327.776
 20
131449.727
 10
544334.444
 20
131453.855
 10
544341.111
 20
131461.157
 10
544345.874
 20
131470.365
 10
544348.731
 20
131480.525
 10
544349.366
 20
131507.195
 10
544362.066
 20
131538.945
 10
544364.606
 20
131579.585
 10
544373.496
 20
131613.557
 10
544376.671
 20
131633.242
 10
544383.974
 20
131653.245
 10
544389.689
 20
131658.96
 10
544394.769
 20
131658.642
 10
544401.119
 20
131652.292
 10
544404.929
 20
131642.45
 10
544405.881
 20
131631.972
 10
544403.341
 20
131606.255
 10
544403.976
 20
131586.887
 10
544409.374
 20
131561.805
 10
544410.961
 20
131547.2
 10
544408.104
 20
131511.64
 10
544412.231
 20
131498.622
 10
544417.311
 20
131492.907
 10
544421.121
 20
131491.002
 10
544431.599
 20
131489.732
 10
544451.919
 20
131494.812
 10
544474.144
 20
131494.812
 10
544486.526
 20
131497.987
 10
544514.784
 20
131516.085
 10
544546.851
 20
131530.372
 10
544557.964
 20
131538.31
 10
544574.474
 20
131553.55
 10
544589.396
 20
131559.582
 10
544598.921
 20
131561.487
 10
544614.479
 20
131560.217
 10
544623.369
 20
131555.455
 10
544629.719
 20
131547.835
 10
544632.576
 20
131539.58
 10
544632.576
 20
131532.595
 10
544626.544
 20
131519.895
 10
544617.336
 20
131510.687
 10
544591.619
 20
131495.13
 10
544578.284
 20
131482.112
 10
544563.679
 20
131457.982
 10
544556.059
 20
131448.14
 10
544540.819
 20
131434.805
 10
544533.834
 20
131426.867
 10
544528.436
 20
131411.945
 10
544526.531
 20
131400.197
 10
544522.404
 20
131392.26
 10
544522.111
 20
131391.696
 10
544521.818
 20
131391.133
 10
544521.525
 20
131390.57
 10
544521.452
 20
131390.429
  0
LWPOLYLINE
  5
94E
330
9BF
100
AcDbEntity
  8
FOSZINTVONAL
  6
CONTINUOUS
 62
     1
100
AcDbPolyline
 90
       13
 70
   128
 43
0.0
 38
150.0
 10
544507.481
 20
131397.975
 10
544490.336
 20
131392.895
 10
544471.921
 20
131385.275
 10
544459.221
 20
131382.735
 10
544441.759
 20
131376.702
 10
544428.106
 20
131369.4
 10
544414.771
 20
131359.875
 10
544406.834
 20
131349.715
 10
544400.484
 20
131330.03
 10
544383.656
 20
131300.82
 10
544380.481
 20
131288.12
 10
544378.894
 20
131270.975
 10
544378.879
 20
131270.817
  0
LWPOLYLINE
  5
950
330
9BF
100
AcDbEntity
  8
FOSZINTVONAL
  6
CONTINUOUS
 62
     1
100
AcDbPolyline
 90
       10
 70
   128
 43
0.0
 38
150.0
 10
544343.334
 20
131156.675
 10
544336.666
 20
131138.26
 10
544329.681
 20
131103.97
 10
544326.506
 20
131095.715
 10
544322.696
 20
131076.665
 10
544321.744
 20
131063.33
 10
544322.061
 20
131045.55
 10
544327.776
 20
131017.927
 10
544327.776
 20
131003.957
 10
544326.942947
 20
131000.0
  0
LWPOLYLINE
  5
951
330
9BF
100
AcDbEntity
  8
FOSZINTVONAL
  6
CONTINUOUS
 62
     1
100
AcDbPolyline
 90
       56
 70
   128
 43
0.0
 38
160.0
 10
545000.0
 20
131086.320415
 10
544983.096
 20
131086.825
 10
544968.491
 20
131085.555
 10
544955.474
 20
131086.825
 10
544932.296
 20
131094.762
 10
544921.501
 20
131102.7
 10
544902.451
 20
131125.242
 10
544895.784
 20
131137.625
 10
544889.751
 20
131156.357
 10
544888.799
 20
131185.885
 10
544891.339
 20
131218.27
 10
544889.116
 20
131230.335
 10
544884.671
 20
131238.59
 10
544868.796
 20
131253.195
 10
544864.986
 20
131258.91
 10
544861.811
 20
131266.53
 10
544857.684
 20
131292.565
 10
544854.191
 20
131304.63
 10
544846.889
 20
131317.33
 10
544834.506
 20
131332.887
 10
544826.569
 20
131349.08
 10
544821.806
 20
131371.94
 10
544821.806
 20
131411.31
 10
544817.679
 20
131427.502
 10
544809.424
 20
131438.615
 10
544797.359
 20
131447.505
 10
544783.706
 20
131461.157
 10
544777.356
 20
131475.127
 10
544775.134
 20
131487.51
 10
544779.261
 20
131505.607
 10
544784.976
 20
131515.767
 10
544797.041
 20
131531.007
 10
544807.836
 20
131548.152
 10
544817.996
 20
131555.772
 10
544856.096
 20
131570.377
 10
544864.351
 20
131580.22
 10
544865.304
 20
131590.697
 10
544864.034
 20
131593.237
 10
544847.524
 20
131610.065
 10
544844.031
 20
131615.78
 10
544843.396
 20
131621.495
 10
544848.476
 20
131630.067
 10
544870.701
 20
131645.307
 10
544878.639
 20
131652.61
 10
544888.481
 20
131668.167
 10
544892.291
 20
131683.725
 10
544893.561
 20
131702.775
 10
544896.101
 20
131714.522
 10
544899.594
 20
131723.095
 10
544917.374
 20
131753.575
 10
544942.456
 20
131838.982
 10
544948.806
 20
131854.222
 10
544953.886
 20
131862.477
 10
544959.919
 20
131868.827
 10
544987.859
 20
131886.607
 10
545000.0
 20
131899.23364
  0
LWPOLYLINE
  5
954
330
9BF
100
AcDbEntity
  8
FOSZINTVONAL
  6
CONTINUOUS
 62
     1
100
AcDbPolyline
 90
        2
 70
   128
 43
0.0
 38
160.0
 10
544943.252
 20
132000.0
 10
544924.945
 20
131994.231
  0
LWPOLYLINE
  5
956
330
9BF
100
AcDbEntity
  8
FOSZINTVONAL
  6
CONTINUOUS
 62
     1
100
AcDbPolyline
 90
       77
 70
   128
 43
0.0
 38
160.0
 10
544306.632
 20
132000.0
 10
544293.804
 20
131993.287
 10
544291.899
 20
131991.382
 10
544293.486
 20
131986.937
 10
544300.154
 20
131982.492
 10
544311.266
 20
131980.587
 10
544318.251
 20
131974.237
 10
544332.856
 20
131943.44
 10
544346.191
 20
131928.517
 10
544350.954
 20
131917.722
 10
544350.954
 20
131890.735
 10
544355.399
 20
131871.367
 10
544356.669
 20
131855.81
 10
544342.064
 20
131780.88
 10
544338.254
 20
131768.497
 10
544333.809
 20
131760.242
 10
544327.141
 20
131750.4
 10
544313.806
 20
131735.16
 10
544305.551
 20
131721.507
 10
544303.964
 20
131705.315
 10
544306.504
 20
131681.82
 10
544305.869
 20
131667.532
 10
544298.566
 20
131643.085
 10
544290.311
 20
131627.21
 10
544285.549
 20
131622.447
 10
544278.881
 20
131618.637
 10
544259.196
 20
131616.732
 10
544251.259
 20
131613.557
 10
544244.274
 20
131607.842
 10
544228.081
 20
131575.457
 10
544220.461
 20
131566.885
 10
544209.666
 20
131560.852
 10
544201.411
 20
131553.232
 10
544195.379
 20
131542.437
 10
544188.711
 20
131525.292
 10
544182.996
 20
131517.355
 10
544177.916
 20
131513.227
 10
544170.614
 20
131511.005
 10
544164.264
 20
131511.957
 10
544158.549
 20
131514.815
 10
544146.484
 20
131524.657
 10
544138.864
 20
131527.832
 10
544133.784
 20
131528.15
 10
544129.974
 20
131526.562
 10
544123.941
 20
131519.577
 10
544122.671
 20
131511.957
 10
544125.211
 20
131498.94
 10
544124.576
 20
131486.875
 10
544114.416
 20
131457.665
 10
544111.876
 20
131443.695
 10
544113.146
 20
131430.995
 10
544116.956
 20
131421.787
 10
544131.879
 20
131402.42
 10
544151.246
 20
131389.402
 10
544160.771
 20
131379.877
 10
544165.216
 20
131371.94
 10
544166.804
 20
131359.557
 10
544163.629
 20
131340.825
 10
544161.089
 20
131334.475
 10
544154.421
 20
131324.632
 10
544138.546
 20
131306.852
 10
544132.196
 20
131296.692
 10
544127.116
 20
131279.547
 10
544125.846
 20
131268.435
 10
544115.051
 20
131239.225
 10
544115.051
 20
131227.16
 10
544119.496
 20
131207.792
 10
544118.226
 20
131192.87
 10
544111.876
 20
131177.947
 10
544108.384
 20
131173.82
 10
544096.319
 20
131149.69
 10
544088.699
 20
131125.877
 10
544082.031
 20
131111.907
 10
544069.331
 20
131097.302
 10
544052.504
 20
131089.047
 10
544035.041
 20
131085.872
 10
544000.0
 20
131075.943717
  0
LWPOLYLINE
  5
957
330
9BF
100
AcDbEntity
  8
FOSZINTVONAL
  6
CONTINUOUS
 62
     1
100
AcDbPolyline
 90
       32
 70
   128
 43
0.0
 38
160.0
 10
544745.606
 20
131397.34
 10
544739.574
 20
131383.37
 10
544736.399
 20
131363.367
 10
544733.224
 20
131353.842
 10
544717.984
 20
131332.252
 10
544702.744
 20
131293.835
 10
544696.711
 20
131286.85
 10
544690.361
 20
131283.992
 10
544684.329
 20
131283.675
 10
544678.931
 20
131284.945
 10
544668.136
 20
131292.247
 10
544658.611
 20
131296.692
 10
544641.466
 20
131299.867
 10
544630.354
 20
131303.677
 10
544621.464
 20
131311.615
 10
544617.971
 20
131318.6
 10
544616.066
 20
131328.76
 10
544616.701
 20
131342.73
 10
544631.306
 20
131395.435
 10
544642.101
 20
131423.692
 10
544652.896
 20
131436.392
 10
544701.791
 20
131478.302
 10
544711.951
 20
131483.7
 10
544721.159
 20
131486.557
 10
544739.574
 20
131485.922
 10
544750.051
 20
131481.16
 10
544755.449
 20
131474.81
 10
544759.576
 20
131465.602
 10
544762.116
 20
131451.632
 10
544762.116
 20
131439.25
 10
544759.576
 20
131430.677
 10
544745.606
 20
131397.34
  0
LWPOLYLINE
  5
958
330
9BF
100
AcDbEntity
  8
FOSZINTVONAL
  6
CONTINUOUS
 62
     1
100
AcDbPolyline
 90
       28
 70
   128
 43
0.0
 38
160.0
 10
544409.374
 20
131045.867
 10
544418.899
 20
131044.597
 10
544425.566
 20
131046.502
 10
544431.916
 20
131050.312
 10
544439.854
 20
131058.25
 10
544452.236
 20
131076.347
 10
544461.761
 20
131092.54
 10
544465.889
 20
131102.7
 10
544474.144
 20
131141.435
 10
544485.256
 20
131160.802
 10
544500.814
 20
131180.17
 10
544510.021
 20
131195.092
 10
544513.831
 20
131209.38
 10
544512.561
 20
131226.207
 10
544502.719
 20
131250.02
 10
544492.241
 20
131259.227
 10
544481.446
 20
131259.862
 10
544475.096
 20
131257.322
 10
544448.744
 20
131232.557
 10
544434.774
 20
131215.412
 10
544424.931
 20
131199.22
 10
544413.184
 20
131160.802
 10
544404.611
 20
131139.847
 10
544401.436
 20
131123.337
 10
544400.166
 20
131084.602
 10
544397.626
 20
131059.52
 10
544402.706
 20
131050.312
 10
544409.374
 20
131045.867
  0
LWPOLYLINE
  5
95B
330
9BF
100
AcDbEntity
  8
ALAPSZINTVONAL
  6
CONTINUOUS
 62
     4
100
AcDbPolyline
 90
       23
 70
   128
 43
0.0
 38
145.0
 10
544296.753603
 20
131000.0
 10
544293.804
 20
131045.232
 10
544294.756
 20
131075.712
 10
544297.931
 20
131102.7
 10
544304.599
 20
131132.227
 10
544313.489
 20
131159.532
 10
544314.441
 20
131167.787
 10
544313.171
 20
131175.09
 10
544310.631
 20
131180.17
 10
544300.789
 20
131186.202
 10
544293.804
 20
131186.202
 10
544287.771
 20
131184.297
 10
544279.516
 20
131176.995
 10
544267.769
 20
131158.262
 10
544259.831
 20
131129.37
 10
544254.751
 20
131117.622
 10
544239.829
 20
131098.89
 10
544229.669
 20
131079.522
 10
544221.096
 20
131056.027
 10
544216.016
 20
131034.437
 10
544212.841
 20
131007.132
 10
544211.571
 20
131004.91
 10
544211.301596
 20
131000.0
  0
LWPOLYLINE
  5
95C
330
9BF
100
AcDbEntity
  8
ALAPSZINTVONAL
  6
CONTINUOUS
 62
     4
100
AcDbPolyline
 90
       43
 70
   128
 43
0.0
 38
147.5
 10
544195.903583
 20
131000.0
 10
544196.966
 20
131038.247
 10
544198.871
 20
131059.837
 10
544209.031
 20
131098.89
 10
544220.144
 20
131123.02
 10
544232.526
 20
131147.467
 10
544237.606
 20
131176.36
 10
544247.449
 20
131196.997
 10
544250.306
 20
131206.205
 10
544252.846
 20
131232.557
 10
544265.864
 20
131253.512
 10
544271.896
 20
131291.295
 10
544277.294
 20
131302.09
 10
544295.074
 20
131322.092
 10
544299.201
 20
131329.712
 10
544308.726
 20
131364.955
 10
544315.076
 20
131377.655
 10
544324.601
 20
131385.592
 10
544343.969
 20
131395.752
 10
544361.114
 20
131411.627
 10
544370.956
 20
131417.025
 10
544382.386
 20
131419.247
 10
544392.546
 20
131417.977
 10
544399.531
 20
131412.58
 10
544401.436
 20
131407.817
 10
544401.436
 20
131399.88
 10
544397.626
 20
131389.085
 10
544390.641
 20
131379.56
 10
544371.591
 20
131361.78
 10
544365.876
 20
131350.667
 10
544365.241
 20
131337.332
 10
544366.511
 20
131321.457
 10
544360.161
 20
131293.517
 10
544358.891
 20
131261.45
 10
544355.716
 20
131238.907
 10
544348.731
 20
131210.015
 10
544338.254
 20
131179.217
 10
544323.331
 20
131145.245
 10
544315.711
 20
131122.385
 10
544304.916
 20
131049.995
 10
544304.916
 20
131032.215
 10
544308.091
 20
131005.862
 10
544308.091
 20
131000.0
  0
LWPOLYLINE
  5
95F
330
9BF
100
AcDbEntity
  8
ALAPSZINTVONAL
  6
CONTINUOUS
 62
     4
100
AcDbPolyline
 90
       12
 70
   128
 43
0.0
 38
152.5
 10
544358.643
 20
131160.951
 10
544358.439
 20
131160.35
 10
544358.235
 20
131159.748
 10
544358.03
 20
131159.147
 10
544357.826
 20
131158.546
 10
544357.621
 20
131157.945
 10
544346.826
 20
131126.195
 10
544339.206
 20
131093.492
 10
544334.761
 20
131039.835
 10
544337.301
 20
131023.642
 10
544339.841
 20
131006.497
 10
544340.04846
 20
131000.0
  0
LWPOLYLINE
  5
960
330
9BF
100
AcDbEntity
  8
ALAPSZINTVONAL
  6
CONTINUOUS
 62
     4
100
AcDbPolyline
 90
       27
 70
   128
 43
0.0
 38
152.5
 10
544484.371053
 20
131000.0
 10
544485.891
 20
131004.275
 10
544490.971
 20
131031.58
 10
544501.131
 20
131054.122
 10
544513.831
 20
131073.172
 10
544523.991
 20
131097.302
 10
544529.706
 20
131107.145
 10
544537.961
 20
131115.082
 10
544554.154
 20
131125.242
 10
544564.631
 20
131134.132
 10
544575.426
 20
131148.42
 10
544581.459
 20
131153.817
 10
544589.079
 20
131156.992
 10
544594.794
 20
131156.992
 10
544600.509
 20
131154.452
 10
544608.129
 20
131148.737
 10
544624.639
 20
131132.227
 10
544648.134
 20
131120.162
 10
544650.991
 20
131117.305
 10
544654.166
 20
131110.32
 10
544654.166
 20
131099.525
 10
544649.086
 20
131088.095
 10
544635.751
 20
131073.172
 10
544593.841
 20
131034.755
 10
544584.316
 20
131022.69
 10
544577.966
 20
131008.085
 10
544575.696589
 20
131000.0
  0
LWPOLYLINE
  5
961
330
9BF
100
AcDbEntity
  8
ALAPSZINTVONAL
  6
CONTINUOUS
 62
     4
100
AcDbPolyline
 90
       18
 70
   128
 43
0.0
 38
152.5
 10
544517.229
 20
131377.21
 10
544517.324
 20
131377.337
 10
544518.276
 20
131378.607
 10
544514.466
 20
131379.242
 10
544492.241
 20
131377.972
 10
544483.351
 20
131376.067
 10
544459.856
 20
131366.542
 10
544442.394
 20
131356.382
 10
544433.821
 20
131346.857
 10
544430.011
 20
131335.11
 10
544423.661
 20
131322.41
 10
544415.406
 20
131313.52
 10
544406.834
 20
131307.487
 10
544398.896
 20
131297.962
 10
544394.451
 20
131288.12
 10
544390.641
 20
131270.975
 10
544390.09
 20
131268.495
 10
544390.056
 20
131268.34
  0
LWPOLYLINE
  5
963
330
9BF
100
AcDbEntity
  8
ALAPSZINTVONAL
  6
CONTINUOUS
 62
     4
100
AcDbPolyline
 90
      110
 70
   128
 43
0.0
 38
152.5
 10
544198.28
 20
131229.894
 10
544198.41
 20
131230.184
 10
544198.669
 20
131230.763
 10
544198.929
 20
131231.343
 10
544199.189
 20
131231.922
 10
544203.316
 20
131241.13
 10
544216.651
 20
131257.64
 10
544226.176
 20
131274.467
 10
544228.716
 20
131289.072
 10
544228.716
 20
131304.63
 10
544238.241
 20
131329.395
 10
544238.241
 20
131336.697
 10
544234.114
 20
131347.81
 10
544235.066
 20
131352.572
 10
544238.241
 20
131356.382
 10
544252.211
 20
131365.59
 10
544260.149
 20
131378.607
 10
544261.736
 20
131386.227
 10
544263.006
 20
131415.755
 10
544258.879
 20
131425.28
 10
544253.164
 20
131431.947
 10
544252.211
 20
131438.297
 10
544261.736
 20
131451.632
 10
544260.784
 20
131463.062
 10
544262.054
 20
131465.92
 10
544267.134
 20
131469.412
 10
544287.136
 20
131470.047
 10
544305.234
 20
131477.985
 10
544316.981
 20
131481.16
 10
544325.871
 20
131487.51
 10
544332.539
 20
131499.892
 10
544344.286
 20
131550.057
 10
544346.509
 20
131598.952
 10
544349.684
 20
131612.287
 10
544361.114
 20
131646.26
 10
544364.606
 20
131685.312
 10
544367.146
 20
131697.377
 10
544383.974
 20
131743.415
 10
544394.134
 20
131780.562
 10
544399.849
 20
131790.405
 10
544408.421
 20
131792.945
 10
544413.501
 20
131790.405
 10
544417.629
 20
131781.197
 10
544419.534
 20
131771.672
 10
544422.074
 20
131740.875
 10
544423.026
 20
131675.152
 10
544427.471
 20
131635.782
 10
544426.519
 20
131608.477
 10
544429.059
 20
131586.887
 10
544434.774
 20
131570.377
 10
544444.934
 20
131552.597
 10
544456.046
 20
131543.707
 10
544471.286
 20
131539.262
 10
544488.431
 20
131544.342
 10
544542.406
 20
131571.647
 10
544578.919
 20
131595.46
 10
544625.274
 20
131637.052
 10
544634.164
 20
131641.815
 10
544651.309
 20
131647.53
 10
544660.516
 20
131653.88
 10
544669.406
 20
131662.77
 10
544677.026
 20
131675.787
 10
544681.471
 20
131689.122
 10
544683.376
 20
131705.315
 10
544688.456
 20
131724.047
 10
544691.631
 20
131731.667
 10
544696.394
 20
131737.382
 10
544707.506
 20
131745.637
 10
544723.699
 20
131752.622
 10
544738.621
 20
131763.735
 10
544751.956
 20
131776.117
 10
544782.119
 20
131808.82
 10
544790.374
 20
131815.17
 10
544804.344
 20
131823.107
 10
544835.141
 20
131834.537
 10
544844.031
 20
131841.205
 10
544858.954
 20
131858.032
 10
544862.764
 20
131859.937
 10
544867.844
 20
131859.937
 10
544870.701
 20
131858.985
 10
544873.241
 20
131855.81
 10
544875.146
 20
131845.015
 10
544871.971
 20
131819.932
 10
544868.479
 20
131805.962
 10
544862.764
 20
131796.12
 10
544841.174
 20
131776.117
 10
544828.791
 20
131762.147
 10
544823.394
 20
131751.67
 10
544817.679
 20
131731.667
 10
544812.281
 20
131720.872
 10
544806.249
 20
131713.252
 10
544790.691
 20
131698.647
 10
544775.451
 20
131671.025
 10
544754.496
 20
131644.355
 10
544750.369
 20
131635.782
 10
544738.939
 20
131602.127
 10
544727.509
 20
131590.062
 10
544695.441
 20
131577.997
 10
544680.836
 20
131566.25
 10
544665.279
 20
131546.565
 10
544645.911
 20
131506.56
 10
544634.799
 20
131494.812
 10
544613.209
 20
131482.112
 10
544601.461
 20
131470.365
 10
544581.141
 20
131438.297
 10
544554.471
 20
131411.31
 10
544547.486
 20
131401.15
 10
544536.691
 20
131379.242
 10
544530.659
 20
131372.257
 10
544530.036
 20
131371.536
  0
LWPOLYLINE
  5
966
330
9BF
100
AcDbEntity
  8
ALAPSZINTVONAL
  6
CONTINUOUS
 62
     4
100
AcDbPolyline
 90
       12
 70
   128
 43
0.0
 38
152.5
 10
544191.955
 20
131214.911
 10
544192.081
 20
131214.62
 10
544192.839
 20
131212.872
 10
544196.966
 20
131203.347
 10
544196.966
 20
131190.33
 10
544192.204
 20
131170.327
 10
544177.281
 20
131134.132
 10
544167.121
 20
131093.175
 10
544162.676
 20
131061.742
 10
544162.676
 20
131011.26
 10
544161.406
 20
131008.72
 10
544160.562129
 20
131000.0
  0
LWPOLYLINE
  5
967
330
9BF
100
AcDbEntity
  8
ALAPSZINTVONAL
  6
CONTINUOUS
 62
     4
100
AcDbPolyline
 90
       20
 70
   128
 43
0.0
 38
155.0
 10
544141.569296
 20
131000.0
 10
544146.166
 20
131017.927
 10
544147.436
 20
131078.887
 10
544153.786
 20
131103.017
 10
544154.421
 20
131114.765
 10
544159.501
 20
131139.53
 10
544170.296
 20
131171.28
 10
544170.931
 20
131184.932
 10
544174.741
 20
131200.807
 10
544174.106
 20
131210.967
 10
544170.614
 20
131218.587
 10
544169.979
 20
131223.667
 10
544175.376
 20
131238.59
 10
544195.061
 20
131265.895
 10
544200.141
 20
131277.007
 10
544200.776
 20
131296.057
 10
544202.681
 20
131303.36
 10
544212.841
 20
131319.87
 10
544216.016
 20
131328.125
 10
544216.334
 20
131350.032
  0
LWPOLYLINE
  5
968
330
9BF
100
AcDbEntity
  8
ALAPSZINTVONAL
  6
CONTINUOUS
 62
     4
100
AcDbPolyline
 90
      109
 70
   128
 43
0.0
 38
155.0
 10
544214.111
 20
131356.382
 10
544232.209
 20
131382.1
 10
544236.019
 20
131390.672
 10
544237.606
 20
131398.292
 10
544238.241
 20
131405.912
 10
544236.971
 20
131413.85
 10
544233.161
 20
131422.105
 10
544222.366
 20
131433.217
 10
544220.779
 20
131438.297
 10
544222.366
 20
131444.647
 10
544234.749
 20
131452.902
 10
544240.146
 20
131458.3
 10
544243.004
 20
131464.967
 10
544244.591
 20
131474.81
 10
544255.386
 20
131485.287
 10
544259.196
 20
131498.622
 10
544264.594
 20
131505.607
 10
544272.849
 20
131510.052
 10
544299.836
 20
131512.275
 10
544309.361
 20
131515.767
 10
544318.886
 20
131524.34
 10
544326.189
 20
131539.897
 10
544329.046
 20
131556.407
 10
544328.094
 20
131584.665
 10
544329.046
 20
131595.46
 10
544331.904
 20
131609.43
 10
544341.746
 20
131640.227
 10
544344.286
 20
131659.277
 10
544344.286
 20
131687.217
 10
544347.144
 20
131702.14
 10
544352.224
 20
131719.602
 10
544364.924
 20
131750.082
 10
544372.226
 20
131773.26
 10
544380.164
 20
131802.787
 10
544388.736
 20
131849.142
 10
544389.371
 20
131869.462
 10
544388.101
 20
131886.607
 10
544389.371
 20
131894.227
 10
544395.721
 20
131912.007
 10
544395.721
 20
131922.802
 10
544391.276
 20
131936.772
 10
544390.641
 20
131943.122
 10
544393.499
 20
131952.33
 10
544403.659
 20
131963.442
 10
544411.279
 20
131981.54
 10
544415.406
 20
131986.937
 10
544423.026
 20
131989.795
 10
544429.376
 20
131985.032
 10
544434.139
 20
131978.047
 10
544441.759
 20
131958.997
 10
544444.934
 20
131930.74
 10
544456.364
 20
131896.767
 10
544457.634
 20
131881.21
 10
544455.411
 20
131862.477
 10
544454.776
 20
131828.187
 10
544448.426
 20
131787.547
 10
544446.521
 20
131755.797
 10
544445.886
 20
131700.552
 10
544447.156
 20
131678.327
 10
544451.601
 20
131651.657
 10
544451.601
 20
131623.082
 10
544452.871
 20
131614.192
 10
544458.586
 20
131599.905
 10
544470.334
 20
131589.427
 10
544479.859
 20
131589.427
 10
544482.081
 20
131590.062
 10
544490.336
 20
131595.142
 10
544512.561
 20
131614.827
 10
544543.041
 20
131631.972
 10
544561.774
 20
131650.387
 10
544568.441
 20
131652.927
 10
544583.364
 20
131651.975
 10
544590.349
 20
131654.832
 10
544596.381
 20
131661.817
 10
544604.636
 20
131679.28
 10
544611.304
 20
131685.312
 10
544623.686
 20
131687.852
 10
544637.339
 20
131684.677
 10
544644.959
 20
131684.36
 10
544653.531
 20
131685.947
 10
544658.294
 20
131688.487
 10
544664.326
 20
131695.155
 10
544666.549
 20
131699.917
 10
544670.041
 20
131718.332
 10
544666.866
 20
131745.002
 10
544666.231
 20
131768.815
 10
544671.311
 20
131785.96
 10
544677.979
 20
131790.722
 10
544685.599
 20
131791.04
 10
544704.966
 20
131784.055
 10
544718.936
 20
131782.467
 10
544726.239
 20
131784.055
 10
544733.859
 20
131788.182
 10
544743.066
 20
131800.247
 10
544756.084
 20
131831.362
 10
544765.291
 20
131843.427
 10
544818.314
 20
131878.987
 10
544855.144
 20
131899.625
 10
544880.861
 20
131923.755
 10
544901.499
 20
131938.677
 10
544916.739
 20
131956.775
 10
544919.596
 20
131958.045
 10
544922.136
 20
131957.092
 10
544926.899
 20
131950.742
 10
544931.661
 20
131948.202
 10
544943.091
 20
131949.472
 10
544961.824
 20
131958.997
 10
544997.066
 20
131982.492
 10
545000.0
 20
131983.613959
  0
LWPOLYLINE
  5
96B
330
9BF
100
AcDbEntity
  8
ALAPSZINTVONAL
  6
CONTINUOUS
 62
     4
100
AcDbPolyline
 90
       48
 70
   128
 43
0.0
 38
155.0
 10
545000.0
 20
131939.224978
 10
544986.589
 20
131926.612
 10
544971.349
 20
131912.007
 10
544959.284
 20
131898.037
 10
544926.264
 20
131875.177
 10
544917.056
 20
131866.287
 10
544906.896
 20
131853.27
 10
544896.101
 20
131831.68
 10
544888.799
 20
131803.105
 10
544880.861
 20
131781.197
 10
544874.511
 20
131770.402
 10
544857.366
 20
131750.082
 10
544851.016
 20
131739.287
 10
544843.079
 20
131722.777
 10
544836.094
 20
131701.505
 10
544829.426
 20
131688.17
 10
544824.664
 20
131682.772
 10
544818.314
 20
131678.962
 10
544796.724
 20
131673.247
 10
544786.881
 20
131663.405
 10
544777.991
 20
131650.07
 10
544772.276
 20
131631.337
 10
544771.641
 20
131616.732
 10
544773.229
 20
131599.27
 10
544770.689
 20
131587.522
 10
544767.196
 20
131581.49
 10
544751.639
 20
131570.377
 10
544744.019
 20
131561.487
 10
544733.224
 20
131553.867
 10
544722.111
 20
131550.057
 10
544700.204
 20
131546.565
 10
544685.281
 20
131537.357
 10
544677.661
 20
131527.832
 10
544664.961
 20
131503.067
 10
544651.626
 20
131484.335
 10
544639.879
 20
131473.857
 10
544620.829
 20
131464.967
 10
544608.446
 20
131451.632
 10
544602.096
 20
131440.837
 10
544589.396
 20
131412.897
 10
544582.411
 20
131402.737
 10
544568.441
 20
131387.497
 10
544563.996
 20
131380.83
 10
544551.931
 20
131355.112
 10
544543.676
 20
131346.222
 10
544543.244
 20
131345.757
 10
544542.812
 20
131345.292
 10
544542.704
 20
131345.175
  0
LWPOLYLINE
  5
96C
330
9BF
100
AcDbEntity
  8
ALAPSZINTVONAL
  6
CONTINUOUS
 62
     4
100
AcDbPolyline
 90
       21
 70
   128
 43
0.0
 38
155.0
 10
544530.659
 20
131352.89
 10
544517.959
 20
131353.207
 10
544494.781
 20
131360.192
 10
544482.399
 20
131359.557
 10
544471.286
 20
131355.112
 10
544458.904
 20
131346.857
 10
544452.236
 20
131339.555
 10
544437.631
 20
131309.71
 10
544421.121
 20
131294.152
 10
544411.914
 20
131280.817
 10
544405.881
 20
131255.417
 10
544405.881
 20
131238.272
 10
544402.389
 20
131218.905
 10
544386.831
 20
131176.995
 10
544371.274
 20
131150.96
 10
544364.606
 20
131135.085
 10
544360.161
 20
131100.16
 10
544348.731
 20
131056.345
 10
544347.144
 20
131043.01
 10
544348.731
 20
131024.912
 10
544355.651
 20
131000.0
  0
LWPOLYLINE
  5
96D
330
9BF
100
AcDbEntity
  8
ALAPSZINTVONAL
  6
CONTINUOUS
 62
     4
100
AcDbPolyline
 90
       35
 70
   128
 43
0.0
 38
155.0
 10
544461.336644
 20
131000.0
 10
544468.429
 20
131010.942
 10
544477.001
 20
131042.692
 10
544480.811
 20
131052.217
 10
544497.321
 20
131074.125
 10
544504.941
 20
131088.095
 10
544510.656
 20
131109.05
 10
544515.101
 20
131118.892
 10
544520.816
 20
131126.83
 10
544528.436
 20
131134.45
 10
544544.629
 20
131146.832
 10
544557.646
 20
131162.072
 10
544566.854
 20
131182.392
 10
544574.156
 20
131207.792
 10
544578.601
 20
131215.412
 10
544587.491
 20
131223.667
 10
544595.111
 20
131226.207
 10
544602.731
 20
131226.207
 10
544615.114
 20
131221.445
 10
544625.591
 20
131211.602
 10
544641.466
 20
131189.06
 10
544657.976
 20
131170.645
 10
544677.661
 20
131159.215
 10
544698.616
 20
131154.452
 10
544730.366
 20
131152.23
 10
544765.926
 20
131155.087
 10
544779.896
 20
131154.452
 10
544802.756
 20
131148.737
 10
544814.821
 20
131138.895
 10
544818.631
 20
131131.592
 10
544819.584
 20
131123.655
 10
544815.456
 20
131111.59
 10
544802.439
 20
131098.255
 10
544801.995
 20
131097.8
 10
544801.884
 20
131097.687
  0
LWPOLYLINE
  5
96E
330
9BF
100
AcDbEntity
  8
ALAPSZINTVONAL
  6
CONTINUOUS
 62
     4
100
AcDbPolyline
 90
       10
 70
   128
 43
0.0
 38
155.0
 10
544730.366
 20
131082.062
 10
544698.934
 20
131070.95
 10
544685.916
 20
131063.647
 10
544676.391
 20
131055.075
 10
544664.961
 20
131039.835
 10
544657.659
 20
131032.532
 10
544644.324
 20
131023.007
 10
544622.734
 20
131012.212
 10
544611.621
 20
131002.37
 10
544609.98466
 20
131000.0
  0
LWPOLYLINE
  5
96F
330
9BF
100
AcDbEntity
  8
ALAPSZINTVONAL
  6
CONTINUOUS
 62
     4
100
AcDbPolyline
 90
       14
 70
   128
 43
0.0
 38
157.5
 10
544678.515941
 20
131000.0
 10
544685.281
 20
131013.165
 10
544690.996
 20
131021.42
 10
544698.934
 20
131030.627
 10
544705.284
 20
131035.707
 10
544714.491
 20
131039.517
 10
544734.494
 20
131039.835
 10
544759.576
 20
131050.947
 10
544769.101
 20
131050.63
 10
544772.594
 20
131049.042
 10
544777.991
 20
131043.645
 10
544787.516
 20
131029.04
 10
544796.406
 20
131020.15
 10
544807.344571
 20
131000.0
  0
LWPOLYLINE
  5
970
330
9BF
100
AcDbEntity
  8
ALAPSZINTVONAL
  6
CONTINUOUS
 62
     4
100
AcDbPolyline
 90
       87
 70
   128
 43
0.0
 38
157.5
 10
544889.344308
 20
131000.0
 10
544892.609
 20
131002.052
 10
544911.976
 20
131021.42
 10
544922.136
 20
131027.135
 10
544940.551
 20
131033.802
 10
544947.536
 20
131041.74
 10
544948.806
 20
131046.502
 10
544944.996
 20
131054.44
 10
544912.294
 20
131080.157
 10
544893.244
 20
131104.605
 10
544875.146
 20
131119.21
 10
544865.621
 20
131133.815
 10
544861.811
 20
131143.34
 10
544859.906
 20
131155.722
 10
544863.081
 20
131197.632
 10
544861.811
 20
131219.54
 10
544857.366
 20
131230.335
 10
544845.301
 20
131244.94
 10
544837.046
 20
131258.275
 10
544832.919
 20
131269.705
 10
544830.696
 20
131284.31
 10
544825.616
 20
131297.327
 10
544812.916
 20
131310.027
 10
544792.279
 20
131317.33
 10
544769.419
 20
131330.347
 10
544762.116
 20
131332.887
 10
544751.004
 20
131331.935
 10
544743.701
 20
131325.585
 10
544739.891
 20
131314.79
 10
544741.161
 20
131285.262
 10
544735.446
 20
131266.847
 10
544734.811
 20
131256.687
 10
544736.716
 20
131244.305
 10
544743.701
 20
131227.477
 10
544744.336
 20
131213.507
 10
544740.526
 20
131207.792
 10
544735.764
 20
131205.252
 10
544722.429
 20
131206.84
 10
544686.551
 20
131219.857
 10
544678.296
 20
131224.937
 10
544644.959
 20
131253.512
 10
544635.751
 20
131259.545
 10
544629.719
 20
131261.132
 10
544603.049
 20
131260.497
 10
544593.841
 20
131263.037
 10
544580.824
 20
131261.132
 10
544577.966
 20
131258.275
 10
544572.886
 20
131242.082
 10
544552.566
 20
131212.872
 10
544546.851
 20
131193.505
 10
544540.501
 20
131181.44
 10
544532.881
 20
131171.28
 10
544509.386
 20
131150.007
 10
544501.449
 20
131138.895
 10
544496.051
 20
131125.877
 10
544491.606
 20
131105.24
 10
544487.796
 20
131095.397
 10
544453.824
 20
131037.93
 10
544443.981
 20
131024.912
 10
544431.916
 20
131014.117
 10
544418.581
 20
131008.72
 10
544398.896
 20
131005.227
 10
544387.784
 20
131004.91
 10
544382.386
 20
131006.497
 10
544377.941
 20
131010.625
 10
544373.496
 20
131022.055
 10
544372.226
 20
131041.422
 10
544377.306
 20
131082.697
 10
544377.306
 20
131096.985
 10
544380.481
 20
131126.512
 10
544386.196
 20
131144.292
 10
544398.579
 20
131170.327
 10
544405.881
 20
131201.125
 10
544422.709
 20
131242.082
 10
544431.916
 20
131274.785
 10
544449.696
 20
131297.645
 10
544463.666
 20
131325.902
 10
544470.651
 20
131333.205
 10
544476.684
 20
131336.697
 10
544487.796
 20
131339.237
 10
544499.226
 20
131339.237
 10
544532.881
 20
131328.442
 10
544543.994
 20
131327.172
 10
544544.625
 20
131327.1
 10
544545.256
 20
131327.028
 10
544545.887
 20
131326.956
 10
544546.044
 20
131326.938
  0
LWPOLYLINE
  5
973
330
9BF
100
AcDbEntity
  8
ALAPSZINTVONAL
  6
CONTINUOUS
 62
     4
100
AcDbPolyline
 90
       46
 70
   128
 43
0.0
 38
157.5
 10
544559.869
 20
131320.505
 10
544572.251
 20
131334.475
 10
544580.824
 20
131351.302
 10
544589.396
 20
131373.21
 10
544607.494
 20
131402.737
 10
544620.829
 20
131436.075
 10
544628.766
 20
131447.822
 10
544641.784
 20
131457.982
 10
544662.421
 20
131469.412
 10
544676.391
 20
131484.652
 10
544684.011
 20
131495.765
 10
544698.299
 20
131509.417
 10
544706.871
 20
131514.18
 10
544714.491
 20
131515.767
 10
544743.384
 20
131514.18
 10
544755.449
 20
131518.307
 10
544770.054
 20
131531.007
 10
544779.896
 20
131543.39
 10
544797.041
 20
131560.217
 10
544823.076
 20
131574.187
 10
544831.331
 20
131581.49
 10
544833.871
 20
131587.522
 10
544834.506
 20
131594.19
 10
544833.236
 20
131597.365
 10
544826.886
 20
131604.032
 10
544813.234
 20
131610.382
 10
544804.026
 20
131618.955
 10
544800.216
 20
131627.527
 10
544801.169
 20
131634.195
 10
544804.026
 20
131639.275
 10
544812.281
 20
131646.577
 10
544822.441
 20
131649.752
 10
544839.269
 20
131649.752
 10
544844.031
 20
131651.34
 10
544851.651
 20
131656.102
 10
544859.271
 20
131664.992
 10
544864.986
 20
131680.232
 10
544871.019
 20
131719.285
 10
544877.686
 20
131733.572
 10
544895.466
 20
131760.242
 10
544923.089
 20
131838.665
 10
544929.439
 20
131851.682
 10
544938.011
 20
131864.065
 10
544949.124
 20
131874.542
 10
544975.159
 20
131891.052
 10
545000.0
 20
131918.715841
  0
LWPOLYLINE
  5
974
330
9BF
100
AcDbEntity
  8
ALAPSZINTVONAL
  6
CONTINUOUS
 62
     4
100
AcDbPolyline
 90
       12
 70
   128
 43
0.0
 38
167.5
 10
545000.0
 20
131794.27932
 10
544996.114
 20
131787.547
 10
544989.764
 20
131769.132
 10
544985.636
 20
131750.082
 10
544985.001
 20
131732.302
 10
544986.271
 20
131718.332
 10
544984.366
 20
131701.822
 10
544984.366
 20
131682.772
 10
544988.811
 20
131659.277
 10
544988.811
 20
131638.322
 10
544991.986
 20
131629.115
 10
545000.0
 20
131622.38324
  0
LWPOLYLINE
  5
975
330
9BF
100
AcDbEntity
  8
ALAPSZINTVONAL
  6
CONTINUOUS
 62
     4
100
AcDbPolyline
 90
       11
 70
   128
 43
0.0
 38
167.5
 10
545000.0
 20
131560.244693
 10
544995.479
 20
131546.882
 10
544988.494
 20
131501.162
 10
544988.494
 20
131469.095
 10
544997.066
 20
131423.057
 10
544997.701
 20
131406.547
 10
544997.384
 20
131390.99
 10
544990.716
 20
131331.3
 10
544990.716
 20
131302.09
 10
544994.526
 20
131283.675
 10
545000.0
 20
131267.413746
  0
LWPOLYLINE
  5
976
330
9BF
100
AcDbEntity
  8
ALAPSZINTVONAL
  6
CONTINUOUS
 62
     4
100
AcDbPolyline
 90
       33
 70
   128
 43
0.0
 38
165.0
 10
545000.0
 20
131128.77945
 10
544995.161
 20
131130.957
 10
544983.731
 20
131138.577
 10
544973.571
 20
131147.785
 10
544960.236
 20
131169.692
 10
544950.711
 20
131201.442
 10
544941.186
 20
131280.5
 10
544921.819
 20
131338.602
 10
544914.516
 20
131368.447
 10
544911.341
 20
131392.577
 10
544915.151
 20
131449.092
 10
544914.834
 20
131496.4
 10
544918.644
 20
131521.165
 10
544921.501
 20
131529.102
 10
544929.756
 20
131542.12
 10
544958.331
 20
131576.092
 10
544967.856
 20
131584.03
 10
544972.936
 20
131593.237
 10
544971.349
 20
131601.81
 10
544964.999
 20
131606.89
 10
544953.251
 20
131611.652
 10
544947.854
 20
131618.955
 10
544946.266
 20
131626.257
 10
544946.266
 20
131635.465
 10
544950.076
 20
131654.515
 10
544950.711
 20
131680.232
 10
544962.141
 20
131719.92
 10
544960.871
 20
131758.02
 10
544963.411
 20
131777.07
 10
544967.856
 20
131792.945
 10
544976.111
 20
131811.995
 10
544986.906
 20
131826.917
 10
545000.0
 20
131840.929852
  0
LWPOLYLINE
  5
977
330
9BF
100
AcDbEntity
  8
ALAPSZINTVONAL
  6
CONTINUOUS
 62
     4
100
AcDbPolyline
 90
       12
 70
   128
 43
0.0
 38
157.5
 10
544115.140154
 20
131000.0
 10
544121.719
 20
131023.325
 10
544133.149
 20
131116.035
 10
544152.199
 20
131173.185
 10
544153.469
 20
131192.235
 10
544147.119
 20
131212.555
 10
544147.119
 20
131221.445
 10
544167.439
 20
131255.735
 10
544178.869
 20
131300.185
 10
544191.569
 20
131320.505
 10
544191.569
 20
131334.475
 10
544197.284
 20
131353.525
  0
LWPOLYLINE
  5
978
330
9BF
100
AcDbEntity
  8
ALAPSZINTVONAL
  6
CONTINUOUS
 62
     4
100
AcDbPolyline
 90
       51
 70
   128
 43
0.0
 38
157.5
 10
544192.521
 20
131358.287
 10
544199.506
 20
131372.575
 10
544206.809
 20
131383.687
 10
544209.666
 20
131392.895
 10
544209.666
 20
131401.467
 10
544205.221
 20
131410.675
 10
544200.459
 20
131415.437
 10
544185.219
 20
131424.01
 10
544173.154
 20
131428.455
 10
544164.581
 20
131435.122
 10
544162.041
 20
131438.615
 10
544161.406
 20
131443.06
 10
544163.946
 20
131452.902
 10
544168.074
 20
131457.347
 10
544173.471
 20
131460.205
 10
544186.806
 20
131464.332
 10
544193.791
 20
131464.967
 10
544201.729
 20
131468.777
 10
544209.666
 20
131476.715
 10
544215.381
 20
131486.24
 10
544220.144
 20
131491.002
 10
544237.289
 20
131502.432
 10
544243.321
 20
131514.18
 10
544246.496
 20
131538.945
 10
544251.576
 20
131549.105
 10
544256.656
 20
131553.867
 10
544266.499
 20
131558.312
 10
544272.531
 20
131558.312
 10
544282.056
 20
131555.137
 10
544294.121
 20
131547.835
 10
544302.059
 20
131546.247
 10
544307.774
 20
131548.787
 10
544312.219
 20
131555.772
 10
544314.441
 20
131573.235
 10
544311.901
 20
131614.827
 10
544315.076
 20
131631.337
 10
544322.379
 20
131651.022
 10
544323.649
 20
131658.007
 10
544323.966
 20
131692.297
 10
544364.289
 20
131804.057
 10
544372.226
 20
131837.077
 10
544373.496
 20
131861.525
 10
544371.591
 20
131873.907
 10
544371.591
 20
131894.227
 10
544372.226
 20
131902.8
 10
544373.496
 20
131904.387
 10
544373.496
 20
131913.912
 10
544365.559
 20
131946.297
 10
544366.194
 20
131957.41
 10
544371.909
 20
131978.682
 10
544373.734
 20
132000.0
  0
LWPOLYLINE
  5
97A
330
9BF
100
AcDbEntity
  8
ALAPSZINTVONAL
  6
CONTINUOUS
 62
     4
100
AcDbPolyline
 90
       50
 70
   128
 43
0.0
 38
157.5
 10
544498.552
 20
132000.0
 10
544488.749
 20
131981.857
 10
544477.319
 20
131946.297
 10
544474.779
 20
131934.232
 10
544474.779
 20
131898.99
 10
544471.604
 20
131876.447
 10
544473.826
 20
131843.427
 10
544473.191
 20
131825.647
 10
544467.794
 20
131781.832
 10
544463.984
 20
131733.572
 10
544471.286
 20
131659.595
 10
544475.731
 20
131648.165
 10
544483.669
 20
131643.402
 10
544493.194
 20
131644.672
 10
544503.989
 20
131650.07
 10
544543.041
 20
131685.312
 10
544570.029
 20
131700.552
 10
544582.094
 20
131714.84
 10
544591.619
 20
131723.412
 10
544605.906
 20
131729.127
 10
544622.099
 20
131730.08
 10
544629.084
 20
131732.937
 10
544632.576
 20
131736.112
 10
544635.116
 20
131739.605
 10
544637.656
 20
131747.542
 10
544636.386
 20
131791.04
 10
544637.656
 20
131799.612
 10
544656.071
 20
131851.047
 10
544659.881
 20
131857.715
 10
544665.279
 20
131862.477
 10
544674.169
 20
131865.017
 10
544680.836
 20
131863.112
 10
544687.186
 20
131859.302
 10
544695.441
 20
131848.507
 10
544706.871
 20
131821.52
 10
544711.316
 20
131817.392
 10
544717.666
 20
131817.71
 10
544724.016
 20
131824.377
 10
544736.716
 20
131848.507
 10
544747.511
 20
131863.43
 10
544772.594
 20
131884.067
 10
544789.104
 20
131900.577
 10
544801.486
 20
131907.245
 10
544823.394
 20
131912.325
 10
544834.506
 20
131917.087
 10
544842.126
 20
131922.802
 10
544863.081
 20
131944.392
 10
544888.481
 20
131957.727
 10
544906.896
 20
131972.332
 10
544907.145
 20
131972.53
  0
LWPOLYLINE
  5
97C
330
9BF
100
AcDbEntity
  8
ALAPSZINTVONAL
  6
CONTINUOUS
 62
     4
100
AcDbPolyline
 90
        8
 70
   128
 43
0.0
 38
157.5
 10
545000.0
 20
131999.626611
 10
544974.841
 20
131995.51
 10
544963.411
 20
131990.747
 10
544947.219
 20
131980.905
 10
544938.011
 20
131977.73
 10
544927.851
 20
131976.46
 10
544927.221
 20
131976.381
 10
544926.906
 20
131976.342
  0
LWPOLYLINE
  5
97D
330
9BF
100
AcDbEntity
  8
FOSZINTVONAL
  6
CONTINUOUS
 62
     1
100
AcDbPolyline
 90
       50
 70
   128
 43
0.0
 38
160.0
 10
544517.221
 20
132000.0
 10
544510.656
 20
131982.175
 10
544507.799
 20
131964.077
 10
544501.766
 20
131944.075
 10
544499.861
 20
131931.375
 10
544500.814
 20
131898.355
 10
544498.591
 20
131887.877
 10
544499.226
 20
131838.982
 10
544493.511
 20
131800.565
 10
544492.876
 20
131786.595
 10
544491.606
 20
131784.372
 10
544490.019
 20
131749.13
 10
544490.971
 20
131729.445
 10
544494.146
 20
131722.46
 10
544498.591
 20
131718.65
 10
544507.799
 20
131718.332
 10
544521.134
 20
131720.872
 10
544539.549
 20
131721.507
 10
544549.074
 20
131727.54
 10
544563.361
 20
131743.732
 10
544580.189
 20
131753.892
 10
544585.586
 20
131760.242
 10
544588.761
 20
131768.815
 10
544590.666
 20
131776.752
 10
544590.666
 20
131791.675
 10
544594.476
 20
131805.01
 10
544620.194
 20
131843.11
 10
544640.196
 20
131887.877
 10
544663.056
 20
131929.152
 10
544674.169
 20
131940.582
 10
544679.884
 20
131942.805
 10
544684.329
 20
131942.805
 10
544692.266
 20
131937.09
 10
544712.586
 20
131900.26
 10
544721.159
 20
131892.957
 10
544732.271
 20
131891.687
 10
544738.939
 20
131894.227
 10
544748.781
 20
131901.212
 10
544768.149
 20
131921.215
 10
544778.626
 20
131929.787
 10
544793.549
 20
131936.137
 10
544804.026
 20
131938.042
 10
544822.441
 20
131938.677
 10
544832.919
 20
131942.487
 10
544840.539
 20
131948.202
 10
544854.509
 20
131962.172
 10
544863.716
 20
131966.935
 10
544880.226
 20
131972.015
 10
544887.846
 20
131976.46
 10
544905.091
 20
131989.853
  0
LWPOLYLINE
  5
97F
330
9BF
100
AcDbEntity
  8
ALAPSZINTVONAL
  6
CONTINUOUS
 62
     4
100
AcDbPolyline
 90
       10
 70
   128
 43
0.0
 38
162.5
 10
544715.001
 20
132000.0
 10
544726.597
 20
131995.725
 10
544739.917
 20
131992.93
 10
544758.823
 20
131992.93
 10
544775.15
 20
131994.865
 10
544787.611
 20
131991.64
 10
544802.864
 20
131989.276
 10
544818.117
 20
131988.846
 10
544835.948
 20
131994.005
 10
544874.064
 20
132000.0
  0
LWPOLYLINE
  5
981
330
9BF
100
AcDbEntity
  8
ALAPSZINTVONAL
  6
CONTINUOUS
 62
     4
100
AcDbPolyline
 90
       59
 70
   128
 43
0.0
 38
162.5
 10
544270.785
 20
132000.0
 10
544262.689
 20
131983.127
 10
544263.006
 20
131974.555
 10
544269.991
 20
131964.077
 10
544284.596
 20
131954.552
 10
544292.534
 20
131946.615
 10
544301.106
 20
131932.645
 10
544309.996
 20
131922.485
 10
544317.616
 20
131910.42
 10
544327.776
 20
131859.937
 10
544327.141
 20
131842.475
 10
544320.791
 20
131804.375
 10
544312.536
 20
131775.482
 10
544303.329
 20
131764.687
 10
544289.994
 20
131757.067
 10
544281.104
 20
131750.082
 10
544276.024
 20
131741.51
 10
544274.436
 20
131733.572
 10
544275.706
 20
131717.697
 10
544275.071
 20
131699.282
 10
544268.086
 20
131680.232
 10
544260.466
 20
131668.167
 10
544253.799
 20
131661.182
 10
544245.226
 20
131657.372
 10
544239.194
 20
131657.69
 10
544233.796
 20
131661.817
 10
544230.621
 20
131673.247
 10
544233.161
 20
131694.52
 10
544241.416
 20
131721.19
 10
544242.051
 20
131736.43
 10
544240.781
 20
131740.24
 10
544236.654
 20
131745.002
 10
544233.161
 20
131746.272
 10
544228.399
 20
131745.637
 10
544224.589
 20
131743.732
 10
544219.191
 20
131737.065
 10
544209.984
 20
131711.03
 10
544198.236
 20
131687.852
 10
544185.536
 20
131669.437
 10
544170.296
 20
131650.705
 10
544165.216
 20
131637.37
 10
544159.184
 20
131604.667
 10
544152.516
 20
131590.062
 10
544144.896
 20
131581.172
 10
544138.546
 20
131577.997
 10
544127.116
 20
131578.632
 10
544111.241
 20
131584.347
 10
544080.444
 20
131599.587
 10
544071.236
 20
131601.492
 10
544058.854
 20
131601.175
 10
544046.471
 20
131597.047
 10
544038.216
 20
131590.38
 10
544030.914
 20
131577.997
 10
544025.834
 20
131561.17
 10
544019.166
 20
131546.882
 10
544015.991
 20
131542.12
 10
544010.911
 20
131537.992
 10
544003.926
 20
131536.405
 10
544000.0
 20
131537.386191
  0
LWPOLYLINE
  5
982
330
9BF
100
AcDbEntity
  8
ALAPSZINTVONAL
  6
CONTINUOUS
 62
     4
100
AcDbPolyline
 90
       14
 70
   128
 43
0.0
 38
162.5
 10
544000.0
 20
131775.5048
 10
544000.434
 20
131778.022
 10
544001.386
 20
131805.327
 10
544006.466
 20
131832.632
 10
544006.784
 20
131845.65
 10
544002.656
 20
131872.637
 10
544002.656
 20
131883.432
 10
544006.784
 20
131898.037
 10
544008.054
 20
131925.025
 10
544017.261
 20
131951.377
 10
544015.356
 20
131961.22
 10
544009.959
 20
131965.347
 10
544001.069
 20
131964.712
 10
544000.0
 20
131964.167036
  0
LWPOLYLINE
  5
983
330
9BF
100
AcDbEntity
  8
ALAPSZINTVONAL
  6
CONTINUOUS
 62
     4
100
AcDbPolyline
 90
       15
 70
   128
 43
0.0
 38
162.5
 10
544655.119
 20
131337.332
 10
544660.834
 20
131332.887
 10
544668.136
 20
131332.252
 10
544682.106
 20
131334.475
 10
544689.726
 20
131337.65
 10
544697.981
 20
131345.905
 10
544700.521
 20
131355.747
 10
544699.886
 20
131360.192
 10
544694.806
 20
131365.907
 10
544692.266
 20
131367.495
 10
544677.979
 20
131368.13
 10
544669.724
 20
131363.367
 10
544659.881
 20
131354.16
 10
544655.436
 20
131344.952
 10
544655.119
 20
131337.332
  0
LWPOLYLINE
  5
986
330
9BF
100
AcDbEntity
  8
FELEZO_SZINTVONAL
  6
DGN_STYLE_3
 62
     2
100
AcDbPolyline
 90
       18
 70
   128
 43
0.0
 38
158.75
 10
544130.027
 20
131168.254
 10
544129.974
 20
131168.105
 10
544119.814
 20
131139.53
 10
544116.056
 20
131109.81
 10
544116.027
 20
131109.654
 10
544115.914
 20
131109.029
 10
544115.8
 20
131108.404
 10
544115.686
 20
131107.78
 10
544113.146
 20
131093.81
 10
544105.526
 20
131068.092
 10
544103.435
 20
131051.868
 10
544103.346
 20
131051.239
 10
544103.256
 20
131050.611
 10
544103.166
 20
131049.982
 10
544103.076
 20
131049.353
 10
544102.986
 20
131048.725
 10
544098.859
 20
131019.832
 10
544092.862149
 20
131000.0
  0
LWPOLYLINE
  5
987
330
9BF
100
AcDbEntity
  8
FELEZO_SZINTVONAL
  6
DGN_STYLE_3
 62
     2
100
AcDbPolyline
 90
       15
 70
   128
 43
0.0
 38
161.25
 10
544430.329
 20
131130.64
 10
544437.314
 20
131131.91
 10
544444.299
 20
131138.26
 10
544463.349
 20
131181.44
 10
544464.374
 20
131183.764
 10
544464.502
 20
131184.054
 10
544476.049
 20
131206.205
 10
544471.604
 20
131210.65
 10
544460.174
 20
131209.38
 10
544445.569
 20
131197.315
 10
544432.869
 20
131168.74
 10
544432.353
 20
131167.579
 10
544423.979
 20
131145.245
 10
544423.979
 20
131138.895
 10
544430.329
 20
131130.64
  0
LWPOLYLINE
  5
98A
330
9BF
100
AcDbEntity
  8
ALAPSZINTVONAL
  6
CONTINUOUS
 62
     4
100
AcDbPolyline
 90
        7
 70
   128
 43
0.0
 38
162.5
 10
544552.601
 20
132000.0
 10
544551.171
 20
131992.63
 10
544555.838
 20
131986.092
 10
544563.773
 20
131982.356
 10
544576.374
 20
131982.823
 10
544590.376
 20
131989.828
 10
544601.279
 20
132000.0
  0
LWPOLYLINE
  5
98C
330
9BF
100
AcDbEntity
  8
FELEZO_SZINTVONAL
  6
DGN_STYLE_3
 62
     2
100
AcDbPolyline
 90
       50
 70
   128
 43
0.0
 38
161.25
 10
544535.769
 20
131990.762
 10
544537.636
 20
131943.592
 10
544543.041
 20
131903.435
 10
544543.094
 20
131902.802
 10
544543.147
 20
131902.169
 10
544543.16
 20
131902.011
 10
544543.041
 20
131885.972
 10
544544.629
 20
131878.67
 10
544548.121
 20
131871.685
 10
544555.424
 20
131866.605
 10
544563.361
 20
131868.192
 10
544576.696
 20
131882.162
 10
544577.135
 20
131882.622
 10
544577.573
 20
131883.081
 10
544577.683
 20
131883.196
 10
544590.349
 20
131898.99
 10
544608.129
 20
131930.422
 10
544608.442
 20
131930.975
 10
544608.598
 20
131931.251
 10
544628.131
 20
131965.982
 10
544635.434
 20
131975.825
 10
544643.689
 20
131983.127
 10
544643.808
 20
131983.232
 10
544660.834
 20
131996.145
 10
544672.899
 20
131998.367
 10
544680.519
 20
131995.827
 10
544686.234
 20
131991.382
 10
544691.949
 20
131983.127
 10
544693.536
 20
131976.142
 10
544693.607
 20
131975.833
 10
544703.061
 20
131954.552
 10
544706.236
 20
131950.107
 10
544713.221
 20
131944.392
 10
544720.206
 20
131942.17
 10
544725.604
 20
131942.17
 10
544741.479
 20
131949.79
 10
544741.622
 20
131949.858
 10
544757.036
 20
131958.68
 10
544763.386
 20
131960.585
 10
544794.819
 20
131960.267
 10
544795.454
 20
131960.261
 10
544796.089
 20
131960.254
 10
544796.724
 20
131960.248
 10
544796.883
 20
131960.246
 10
544813.869
 20
131963.76
 10
544836.094
 20
131975.825
 10
544848.159
 20
131980.27
 10
544848.755
 20
131980.489
 10
544849.351
 20
131980.709
 10
544849.5
 20
131980.764
  0
LWPOLYLINE
  5
98E
330
9BF
100
AcDbEntity
  8
FELEZO_SZINTVONAL
  6
DGN_STYLE_3
 62
     2
100
AcDbPolyline
 90
        7
 70
   128
 43
0.0
 38
161.25
 10
544289.606
 20
132000.0
 10
544278.728
 20
131991.159
 10
544277.327
 20
131978.943
 10
544281.167
 20
131971.515
 10
544296.781
 20
131961.27
 10
544307.275
 20
131951.025
 10
544314.442
 20
131940.779
  0
LWPOLYLINE
  5
990
330
9BF
100
AcDbEntity
  8
FELEZO_SZINTVONAL
  6
DGN_STYLE_3
 62
     2
100
AcDbPolyline
 90
       37
 70
   128
 43
0.0
 38
163.75
 10
544162.786
 20
132000.0
 10
544190.616
 20
131978.047
 10
544196.331
 20
131971.062
 10
544196.734
 20
131970.571
 10
544196.935
 20
131970.325
 10
544204.904
 20
131955.187
 10
544208.079
 20
131944.392
 10
544208.714
 20
131923.755
 10
544206.491
 20
131914.865
 10
544206.337
 20
131914.249
 10
544206.183
 20
131913.633
 10
544206.145
 20
131913.479
 10
544198.871
 20
131893.91
 10
544195.061
 20
131887.242
 10
544185.536
 20
131874.86
 10
544176.011
 20
131867.557
 10
544175.507
 20
131867.171
 10
544175.255
 20
131866.978
 10
544161.406
 20
131860.89
 10
544149.659
 20
131858.35
 10
544137.911
 20
131859.937
 10
544124.894
 20
131865.017
 10
544114.099
 20
131873.272
 10
544113.594
 20
131873.658
 10
544113.09
 20
131874.044
 10
544112.964
 20
131874.14
 10
544103.621
 20
131888.195
 10
544096.954
 20
131905.657
 10
544093.779
 20
131925.342
 10
544094.731
 20
131934.55
 10
544094.797
 20
131935.181
 10
544094.862
 20
131935.813
 10
544094.927
 20
131936.445
 10
544094.944
 20
131936.603
 10
544100.129
 20
131969.157
 10
544101.081
 20
131985.032
 10
544100.94
 20
132000.0
  0
LWPOLYLINE
  5
992
330
9BF
100
AcDbEntity
  8
FELEZO_SZINTVONAL
  6
DGN_STYLE_3
 62
     2
100
AcDbPolyline
 90
       57
 70
   128
 43
0.0
 38
161.25
 10
544000.0
 20
131430.716358
 10
544008.371
 20
131431.947
 10
544013.134
 20
131433.535
 10
544012.181
 20
131434.805
 10
544028.691
 20
131447.505
 10
544032.819
 20
131453.22
 10
544039.169
 20
131469.412
 10
544042.026
 20
131482.43
 10
544042.163
 20
131483.05
 10
544042.299
 20
131483.67
 10
544042.333
 20
131483.825
 10
544045.201
 20
131510.687
 10
544045.201
 20
131538.945
 10
544045.201
 20
131539.58
 10
544045.201
 20
131540.215
 10
544045.201
 20
131540.532
 10
544045.519
 20
131551.645
 10
544045.537
 20
131552.279
 10
544045.554
 20
131552.914
 10
544045.572
 20
131553.549
 10
544045.589
 20
131554.184
 10
544045.607
 20
131554.818
 10
544054.091
 20
131564.98
 10
544058.854
 20
131567.837
 10
544072.189
 20
131569.742
 10
544081.079
 20
131567.52
 10
544081.695
 20
131567.366
 10
544081.849
 20
131567.327
 10
544102.351
 20
131563.392
 10
544127.751
 20
131562.122
 10
544138.546
 20
131558.947
 10
544139.156
 20
131558.768
 10
544139.46
 20
131558.678
 10
544158.231
 20
131553.867
 10
544169.661
 20
131553.867
 10
544176.964
 20
131557.677
 10
544182.996
 20
131563.71
 10
544188.076
 20
131571.647
 10
544188.419
 20
131572.182
 10
544188.59
 20
131572.449
 10
544202.364
 20
131594.507
 10
544208.396
 20
131615.78
 10
544213.794
 20
131622.447
 10
544220.144
 20
131624.352
 10
544220.752
 20
131624.535
 10
544221.36
 20
131624.717
 10
544221.512
 20
131624.763
 10
544238.559
 20
131626.257
 10
544270.944
 20
131646.895
 10
544271.078
 20
131646.98
 10
544281.739
 20
131660.547
 10
544284.914
 20
131671.977
 10
544286.184
 20
131687.535
 10
544286.236
 20
131688.168
 10
544286.287
 20
131688.801
 10
544286.339
 20
131689.433
 10
544286.352
 20
131689.592
  0
LWPOLYLINE
  5
995
330
9BF
100
AcDbEntity
  8
FELEZO_SZINTVONAL
  6
DGN_STYLE_3
 62
     2
100
AcDbPolyline
 90
       21
 70
   129
 43
0.0
 38
163.75
 10
544071.591
 20
131741.006
 10
544071.622
 20
131740.85
 10
544071.871
 20
131739.605
 10
544073.776
 20
131730.08
 10
544078.539
 20
131724.047
 10
544086.476
 20
131719.602
 10
544092.191
 20
131719.602
 10
544100.764
 20
131723.412
 10
544106.161
 20
131729.445
 10
544109.971
 20
131737.7
 10
544112.511
 20
131749.765
 10
544112.773
 20
131751.007
 10
544112.806
 20
131751.163
 10
544112.194
 20
131769.132
 10
544108.066
 20
131776.117
 10
544101.399
 20
131781.197
 10
544096.319
 20
131781.515
 10
544085.841
 20
131777.705
 10
544077.586
 20
131767.545
 10
544072.189
 20
131750.717
 10
544072.092
 20
131750.415
  0
LWPOLYLINE
  5
999
330
9BF
100
AcDbEntity
  8
FELEZO_SZINTVONAL
  6
DGN_STYLE_3
 62
     2
100
AcDbPolyline
 90
       53
 70
   128
 43
0.0
 38
151.25
 10
544566.994
 20
131567.335
 10
544569.076
 20
131568.79
 10
544589.079
 20
131582.76
 10
544608.764
 20
131591.65
 10
544609.921
 20
131592.172
 10
544610.066
 20
131592.238
 10
544636.704
 20
131604.985
 10
544658.294
 20
131620.542
 10
544658.809
 20
131620.913
 10
544659.324
 20
131621.285
 10
544659.453
 20
131621.377
 10
544682.741
 20
131645.942
 10
544692.584
 20
131660.23
 10
544696.711
 20
131668.802
 10
544696.987
 20
131669.374
 10
544697.056
 20
131669.517
 10
544701.791
 20
131679.915
 10
544709.729
 20
131708.807
 10
544715.444
 20
131716.745
 10
544724.969
 20
131724.365
 10
544725.465
 20
131724.761
 10
544725.589
 20
131724.861
 10
544739.574
 20
131733.255
 10
544761.799
 20
131757.385
 10
544765.926
 20
131759.29
 10
544770.689
 20
131759.29
 10
544775.769
 20
131753.892
 10
544775.769
 20
131748.177
 10
544766.879
 20
131725.317
 10
544764.974
 20
131717.062
 10
544764.831
 20
131716.443
 10
544764.688
 20
131715.825
 10
544764.546
 20
131715.206
 10
544764.403
 20
131714.587
 10
544761.164
 20
131698.012
 10
544759.259
 20
131694.202
 10
544751.004
 20
131683.725
 10
544738.621
 20
131671.66
 10
544731.001
 20
131658.642
 10
544730.841
 20
131658.368
 10
544719.889
 20
131625.94
 10
544712.586
 20
131614.51
 10
544703.696
 20
131604.667
 10
544703.484
 20
131604.432
 10
544680.519
 20
131584.982
 10
544662.104
 20
131564.662
 10
544661.677
 20
131564.192
 10
544661.571
 20
131564.074
 10
544650.356
 20
131546.882
 10
544637.656
 20
131517.672
 10
544629.401
 20
131506.877
 10
544629.016
 20
131506.373
 10
544628.823
 20
131506.121
  0
LWPOLYLINE
  5
99C
330
9BF
100
AcDbEntity
  8
FELEZO_SZINTVONAL
  6
DGN_STYLE_3
 62
     2
100
AcDbPolyline
 90
       21
 70
   128
 43
0.0
 38
158.75
 10
544675.336
 20
131471.307
 10
544675.453
 20
131471.414
 10
544676.391
 20
131472.27
 10
544687.186
 20
131482.112
 10
544699.251
 20
131496.717
 10
544711.634
 20
131503.385
 10
544721.794
 20
131504.972
 10
544723.206
 20
131505.193
 10
544744.336
 20
131502.75
 10
544751.004
 20
131503.067
 10
544754.179
 20
131504.655
 10
544761.481
 20
131508.782
 10
544774.499
 20
131524.022
 10
544774.911
 20
131524.505
 10
544775.118
 20
131524.746
 10
544789.421
 20
131539.897
 10
544789.857
 20
131540.359
 10
544790.293
 20
131540.821
 10
544790.728
 20
131541.283
 10
544791.164
 20
131541.745
 10
544791.382
 20
131541.976
  0
LWPOLYLINE
  5
99F
330
9BF
100
AcDbEntity
  8
FELEZO_SZINTVONAL
  6
DGN_STYLE_3
 62
     2
100
AcDbPolyline
 90
       58
 70
   128
 43
0.0
 38
158.75
 10
544607.536
 20
131375.268
 10
544607.494
 20
131375.115
 10
544601.461
 20
131353.207
 10
544599.758
 20
131318.749
 10
544599.743
 20
131318.591
 10
544599.681
 20
131317.959
 10
544599.619
 20
131317.327
 10
544599.556
 20
131316.695
 10
544597.651
 20
131297.327
 10
544599.556
 20
131290.025
 10
544602.731
 20
131285.58
 10
544611.304
 20
131280.182
 10
544617.654
 20
131278.277
 10
544624.639
 20
131277.007
 10
544638.457
 20
131277.809
 10
544638.615
 20
131277.796
 10
544639.248
 20
131277.745
 10
544639.881
 20
131277.694
 10
544640.514
 20
131277.642
 10
544652.261
 20
131276.69
 10
544664.009
 20
131271.927
 10
544670.676
 20
131267.165
 10
544685.644
 20
131251.39
 10
544685.78
 20
131251.308
 10
544686.324
 20
131250.981
 10
544686.869
 20
131250.655
 10
544693.219
 20
131246.845
 10
544699.251
 20
131245.257
 10
544705.601
 20
131245.575
 10
544713.221
 20
131250.655
 10
544718.301
 20
131264.625
 10
544719.716
 20
131293.051
 10
544719.735
 20
131293.209
 10
544719.812
 20
131293.839
 10
544719.889
 20
131294.47
 10
544721.476
 20
131307.487
 10
544725.604
 20
131319.235
 10
544732.906
 20
131331.617
 10
544746.378
 20
131349.855
 10
544746.544
 20
131350.126
 10
544746.876
 20
131350.667
 10
544761.481
 20
131374.48
 10
544763.704
 20
131376.702
 10
544773.229
 20
131379.242
 10
544775.134
 20
131379.877
 10
544781.484
 20
131377.02
 10
544789.63
 20
131366.124
 10
544789.772
 20
131365.84
 10
544790.056
 20
131365.272
 10
544802.439
 20
131340.507
 10
544815.456
 20
131326.537
 10
544827.842
 20
131317.128
 10
544827.948
 20
131317.009
 10
544828.791
 20
131316.06
 10
544836.411
 20
131307.487
 10
544842.126
 20
131291.93
 10
544843.002
 20
131289.545
 10
544843.057
 20
131289.396
  0
LWPOLYLINE
  5
9A2
330
9BF
100
AcDbEntity
  8
FELEZO_SZINTVONAL
  6
DGN_STYLE_3
 62
     2
100
AcDbPolyline
 90
       31
 70
   128
 43
0.0
 38
158.75
 10
544507.667
 20
131169.287
 10
544507.799
 20
131169.375
 10
544511.609
 20
131171.915
 10
544525.579
 20
131191.917
 10
544532.861
 20
131213.288
 10
544532.955
 20
131213.592
 10
544533.142
 20
131214.199
 10
544533.329
 20
131214.805
 10
544533.516
 20
131215.412
 10
544543.994
 20
131249.385
 10
544545.847
 20
131267.53
 10
544545.778
 20
131267.673
 10
544545.5
 20
131268.244
 10
544545.223
 20
131268.816
 10
544544.946
 20
131269.387
 10
544539.866
 20
131279.865
 10
544534.469
 20
131284.627
 10
544517.959
 20
131292.565
 10
544509.069
 20
131294.152
 10
544503.671
 20
131293.517
 10
544489.532
 20
131286.589
 10
544489.384
 20
131286.532
 10
544473.509
 20
131280.5
 10
544461.126
 20
131273.197
 10
544452.554
 20
131265.26
 10
544445.027
 20
131253.006
 10
544444.934
 20
131252.877
 10
544432.234
 20
131235.415
 10
544423.661
 20
131219.857
 10
544423.355
 20
131219.301
 10
544423.202
 20
131219.023
  0
LWPOLYLINE
  5
9A5
330
9BF
100
AcDbEntity
  8
FELEZO_SZINTVONAL
  6
DGN_STYLE_3
 62
     2
100
AcDbPolyline
 90
       60
 70
   128
 43
0.0
 38
156.25
 10
544716.873
 20
131184.601
 10
544717.172
 20
131184.497
 10
544719.571
 20
131183.662
 10
544734.176
 20
131178.582
 10
544740.844
 20
131177.63
 10
544757.036
 20
131179.217
 10
544757.668
 20
131179.279
 10
544757.984
 20
131179.31
 10
544769.736
 20
131184.297
 10
544778.944
 20
131192.552
 10
544786.881
 20
131206.205
 10
544789.421
 20
131218.27
 10
544789.552
 20
131218.891
 10
544789.683
 20
131219.512
 10
544789.814
 20
131220.134
 10
544789.847
 20
131220.289
 10
544788.151
 20
131249.702
 10
544792.279
 20
131256.052
 10
544800.216
 20
131259.862
 10
544810.376
 20
131258.592
 10
544818.631
 20
131251.925
 10
544823.076
 20
131243.67
 10
544823.377
 20
131243.111
 10
544823.679
 20
131242.552
 10
544823.754
 20
131242.412
 10
544839.904
 20
131209.062
 10
544842.444
 20
131189.377
 10
544842.485
 20
131189.062
 10
544840.221
 20
131161.755
 10
544843.079
 20
131146.515
 10
544847.841
 20
131131.91
 10
544848.038
 20
131131.306
 10
544848.235
 20
131130.702
 10
544848.432
 20
131130.099
 10
544848.481
 20
131129.948
 10
544859.271
 20
131107.78
 10
544862.764
 20
131096.667
 10
544863.399
 20
131085.555
 10
544859.589
 20
131073.49
 10
544859.541
 20
131073.338
 10
544840.221
 20
131049.995
 10
544830.061
 20
131041.422
 10
544824.981
 20
131039.835
 10
544819.584
 20
131040.47
 10
544812.599
 20
131047.137
 10
544812.14
 20
131047.576
 10
544812.025
 20
131047.685
 10
544803.074
 20
131063.33
 10
544793.866
 20
131074.125
 10
544782.436
 20
131080.475
 10
544773.864
 20
131081.11
 10
544773.231
 20
131081.157
 10
544772.597
 20
131081.204
 10
544772.439
 20
131081.215
 10
544755.131
 20
131073.807
 10
544738.304
 20
131063.965
 10
544723.064
 20
131060.155
 10
544722.448
 20
131060.001
 10
544721.832
 20
131059.847
 10
544721.678
 20
131059.808
  0
LWPOLYLINE
  5
9A8
330
9BF
100
AcDbEntity
  8
ALAPSZINTVONAL
  6
CONTINUOUS
 62
     4
100
AcDbPolyline
 90
       52
 70
   128
 43
0.0
 38
162.5
 10
545000.0
 20
131884.993909
 10
544999.606
 20
131884.385
 10
544991.034
 20
131875.812
 10
544970.079
 20
131860.572
 10
544958.966
 20
131847.872
 10
544951.981
 20
131835.807
 10
544948.171
 20
131825.965
 10
544943.726
 20
131800.565
 10
544936.741
 20
131774.847
 10
544931.661
 20
131727.54
 10
544928.486
 20
131718.332
 10
544915.151
 20
131691.98
 10
544910.706
 20
131664.675
 10
544901.816
 20
131639.275
 10
544902.451
 20
131625.94
 10
544906.261
 20
131615.78
 10
544916.421
 20
131599.587
 10
544918.326
 20
131591.967
 10
544917.691
 20
131587.522
 10
544911.341
 20
131577.68
 10
544899.911
 20
131566.885
 10
544891.656
 20
131554.185
 10
544882.449
 20
131544.342
 10
544863.399
 20
131534.817
 10
544858.001
 20
131530.372
 10
544851.016
 20
131521.165
 10
544848.476
 20
131513.545
 10
544848.476
 20
131503.385
 10
544850.064
 20
131498.305
 10
544865.621
 20
131471.952
 10
544871.971
 20
131454.49
 10
544873.876
 20
131445.282
 10
544874.511
 20
131428.455
 10
544871.336
 20
131396.387
 10
544871.336
 20
131373.845
 10
544873.559
 20
131365.59
 10
544887.529
 20
131332.887
 10
544889.751
 20
131320.822
 10
544891.021
 20
131300.185
 10
544895.466
 20
131288.437
 10
544905.944
 20
131268.117
 10
544910.071
 20
131254.147
 10
544912.611
 20
131230.017
 10
544911.024
 20
131191.6
 10
544912.929
 20
131170.645
 10
544918.644
 20
131147.15
 10
544931.661
 20
131125.242
 10
544939.916
 20
131116.67
 10
544952.616
 20
131107.462
 10
544963.411
 20
131103.335
 10
544979.921
 20
131100.477
 10
545000.0
 20
131100.738172
  0
ENDSEC
  0
SECTION
  2
OBJECTS
  0
DICTIONARY
  5
9D2
330
0
100
AcDbDictionary
  3
ACAD_GROUP
350
9D0
  3
ACAD_LAYOUT
350
9E5
  3
ACAD_MLINESTYLE
350
9D1
  3
ACAD_TABLESTYLE
350
9E4
  3
ACADDIM
350
9DF
  3
ACDBHEADERROUNDTRIPXREC
350
A13
  3
DWGPROPS
350
A32
  0
DICTIONARY
  5
A33
330
190
100
AcDbDictionary
280
     1
  3
ACAD_XREC_ROUNDTRIP
360
A34
  0
DICTIONARY
  5
9D0
102
{ACAD_REACTORS
330
9D2
102
}
330
9D2
100
AcDbDictionary
  0
DICTIONARY
  5
9E5
102
{ACAD_REACTORS
330
9D2
102
}
330
9D2
100
AcDbDictionary
  0
DICTIONARY
  5
9D1
102
{ACAD_REACTORS
330
9D2
102
}
330
9D2
100
AcDbDictionary
  3
STANDARD
350
9BD
  0
DICTIONARY
  5
9E4
102
{ACAD_REACTORS
330
9D2
102
}
330
9D2
100
AcDbDictionary
  0
XRECORD
  5
9DF
102
{ACAD_REACTORS
330
9D2
102
}
330
9D2
100
AcDbXrecord
 90
   990106
  3
 
 60
     0
 61
     0
 62
     1
 63
     1
 64
     0
 65
     0
 66
     0
 67
     3
 68
     1
 69
     1
 70
     0
 71
     0
 72
     0
 40
0.0
170
     0
  0
DICTIONARY
  5
A13
102
{ACAD_REACTORS
330
9D2
102
}
330
9D2
100
AcDbDictionary
  3
CEPSNTYPE
350
A1B
  3
DIMSTYLEDATA
350
A31
  3
FINGERPRINTGUID
350
A1C
  3
HYPERLINKBASE
350
A16
  3
INSUNITS
350
A1A
  3
LAYOUTDICT
350
A18
  3
LWETCUNION
350
A19
  3
PSVPSCALE
350
A1E
  3
PUCSBASE
350
A21
  3
PUCSORGBACK
350
A27
  3
PUCSORGBOTTOM
350
A23
  3
PUCSORGFRONT
350
A26
  3
PUCSORGLEFT
350
A24
  3
PUCSORGRIGHT
350
A25
  3
PUCSORGTOP
350
A22
  3
PUCSORTHOREF
350
A1F
  3
PUCSORTHOVIEW
350
A20
  3
STYLESHEET
350
A17
  3
TSTACKALIGN
350
A14
  3
TSTACKSIZE
350
A15
  3
UCSBASE
350
A2A
  3
UCSORGBACK
350
A30
  3
UCSORGBOTTOM
350
A2C
  3
UCSORGFRONT
350
A2F
  3
UCSORGLEFT
350
A2D
  3
UCSORGRIGHT
350
A2E
  3
UCSORGTOP
350
A2B
  3
UCSORTHOREF
350
A28
  3
UCSORTHOVIEW
350
A29
  3
VERSIONGUID
350
A1D
  0
XRECORD
  5
A32
102
{ACAD_REACTORS
330
9D2
102
}
330
9D2
100
AcDbXrecord
  1
DWGPROPS COOKIE
  2

  3

  4
stomi
  6

  7

  8

  9

300
=
301
=
302
=
303
=
304
=
305
=
306
=
307
=
308
=
309
=
 40
0.0
 41
0.0
 42
0.0
  1

 90
        0
  0
XRECORD
  5
A34
102
{ACAD_REACTORS
330
A33
102
}
330
A33
100
AcDbXrecord
102
UCS
 74
     0
 71
     1
 10
0.0
 20
0.0
 30
0.0
 10
1.0
 20
0.0
 30
0.0
 10
0.0
 20
1.0
 30
0.0
146
0.0
 79
     0
102
VIEW
281
     0
  0
MLINESTYLE
  5
9BD
102
{ACAD_REACTORS
330
9D1
102
}
330
9D1
100
AcDbMlineStyle
  2
STANDARD
 70
     0
  3

 62
   256
 51
90.0
 52
90.0
 71
     2
 49
0.5
 62
   256
  6
BYLAYER
 49
-0.5
 62
   256
  6
BYLAYER
  0
XRECORD
  5
A1B
102
{ACAD_REACTORS
330
A13
102
}
330
A13
100
AcDbXrecord
 90
        0
  0
XRECORD
  5
A31
102
{ACAD_REACTORS
330
A13
102
}
330
A13
100
AcDbXrecord
1000
DSTYLE
1002
{
1070
   171
 70
     0
1070
   143
 40
1.0
1070
   274
 70
     0
1070
   286
 70
    15
1070
   285
 70
    15
1070
    41
 40
10.0
1070
   342
340
9D9
1070
   271
 70
     0
1070
    43
 40
0.0
1070
    44
 40
5.0
1070
    42
 40
5.0
1070
   147
 40
5.0
1070
    77
 70
     1
1070
   272
 70
     0
1070
    73
 70
     0
1070
    74
 70
     0
1070
   283
 70
     0
1070
   340
340
9D8
1070
   140
 40
10.0
1070
   284
 70
    11
1070
   288
 70
     1
1070
    78
 70
    11
1002
}
  0
XRECORD
  5
A1C
102
{ACAD_REACTORS
330
A13
102
}
330
A13
100
AcDbXrecord
  1
{FAEB1C30-E019-11D5-929B-00C0DF256EC4}
  0
XRECORD
  5
A16
102
{ACAD_REACTORS
330
A13
102
}
330
A13
100
AcDbXrecord
  1

  0
XRECORD
  5
A1A
102
{ACAD_REACTORS
330
A13
102
}
330
A13
100
AcDbXrecord
 90
        0
  0
XRECORD
  5
A18
102
{ACAD_REACTORS
330
A13
102
}
330
A13
100
AcDbXrecord
340
9E5
  0
XRECORD
  5
A19
102
{ACAD_REACTORS
330
A13
102
}
330
A13
100
AcDbXrecord
 90
    10781
  0
XRECORD
  5
A1E
102
{ACAD_REACTORS
330
A13
102
}
330
A13
100
AcDbXrecord
 40
0.0
  0
XRECORD
  5
A21
102
{ACAD_REACTORS
330
A13
102
}
330
A13
100
AcDbXrecord
340
0
  0
XRECORD
  5
A27
102
{ACAD_REACTORS
330
A13
102
}
330
A13
100
AcDbXrecord
 10
0.0
 20
0.0
 30
0.0
  0
XRECORD
  5
A23
102
{ACAD_REACTORS
330
A13
102
}
330
A13
100
AcDbXrecord
 10
0.0
 20
0.0
 30
0.0
  0
XRECORD
  5
A26
102
{ACAD_REACTORS
330
A13
102
}
330
A13
100
AcDbXrecord
 10
0.0
 20
0.0
 30
0.0
  0
XRECORD
  5
A24
102
{ACAD_REACTORS
330
A13
102
}
330
A13
100
AcDbXrecord
 10
0.0
 20
0.0
 30
0.0
  0
XRECORD
  5
A25
102
{ACAD_REACTORS
330
A13
102
}
330
A13
100
AcDbXrecord
 10
0.0
 20
0.0
 30
0.0
  0
XRECORD
  5
A22
102
{ACAD_REACTORS
330
A13
102
}
330
A13
100
AcDbXrecord
 10
0.0
 20
0.0
 30
0.0
  0
XRECORD
  5
A1F
102
{ACAD_REACTORS
330
A13
102
}
330
A13
100
AcDbXrecord
340
0
  0
XRECORD
  5
A20
102
{ACAD_REACTORS
330
A13
102
}
330
A13
100
AcDbXrecord
 70
     0
  0
XRECORD
  5
A17
102
{ACAD_REACTORS
330
A13
102
}
330
A13
100
AcDbXrecord
  1

  0
XRECORD
  5
A14
102
{ACAD_REACTORS
330
A13
102
}
330
A13
100
AcDbXrecord
 90
        1
  0
XRECORD
  5
A15
102
{ACAD_REACTORS
330
A13
102
}
330
A13
100
AcDbXrecord
 90
       70
  0
XRECORD
  5
A2A
102
{ACAD_REACTORS
330
A13
102
}
330
A13
100
AcDbXrecord
340
0
  0
XRECORD
  5
A30
102
{ACAD_REACTORS
330
A13
102
}
330
A13
100
AcDbXrecord
 10
0.0
 20
0.0
 30
0.0
  0
XRECORD
  5
A2C
102
{ACAD_REACTORS
330
A13
102
}
330
A13
100
AcDbXrecord
 10
0.0
 20
0.0
 30
0.0
  0
XRECORD
  5
A2F
102
{ACAD_REACTORS
330
A13
102
}
330
A13
100
AcDbXrecord
 10
0.0
 20
0.0
 30
0.0
  0
XRECORD
  5
A2D
102
{ACAD_REACTORS
330
A13
102
}
330
A13
100
AcDbXrecord
 10
0.0
 20
0.0
 30
0.0
  0
XRECORD
  5
A2E
102
{ACAD_REACTORS
330
A13
102
}
330
A13
100
AcDbXrecord
 10
0.0
 20
0.0
 30
0.0
  0
XRECORD
  5
A2B
102
{ACAD_REACTORS
330
A13
102
}
330
A13
100
AcDbXrecord
 10
0.0
 20
0.0
 30
0.0
  0
XRECORD
  5
A28
102
{ACAD_REACTORS
330
A13
102
}
330
A13
100
AcDbXrecord
340
0
  0
XRECORD
  5
A29
102
{ACAD_REACTORS
330
A13
102
}
330
A13
100
AcDbXrecord
 70
     0
  0
XRECORD
  5
A1D
102
{ACAD_REACTORS
330
A13
102
}
330
A13
100
AcDbXrecord
  1
{FAEB1C32-E019-11D5-929B-00C0DF256EC4}
  0
ENDSEC
  0
EOF
